<svg xmlns="http://www.w3.org/2000/svg" xmlns:xlink="http://www.w3.org/1999/xlink" width="500" zoomAndPan="magnify" viewBox="0 0 375 374.999991" height="500" preserveAspectRatio="xMidYMid meet" version="1.0"><defs><g/><clipPath id="efedcfa389"><path d="M 113.671875 167.238281 L 246.167969 167.238281 L 246.167969 213.828125 L 113.671875 213.828125 Z M 113.671875 167.238281 " clip-rule="nonzero"/></clipPath><clipPath id="0015b5d701"><path d="M 121.921875 167.238281 L 237.796875 167.238281 C 242.351562 167.238281 246.046875 170.929688 246.046875 175.488281 L 246.046875 205.578125 C 246.046875 210.136719 242.351562 213.828125 237.796875 213.828125 L 121.921875 213.828125 C 117.367188 213.828125 113.671875 210.136719 113.671875 205.578125 L 113.671875 175.488281 C 113.671875 170.929688 117.367188 167.238281 121.921875 167.238281 Z M 121.921875 167.238281 " clip-rule="nonzero"/></clipPath><clipPath id="b100aa170a"><path d="M 0.671875 0.238281 L 133 0.238281 L 133 46.828125 L 0.671875 46.828125 Z M 0.671875 0.238281 " clip-rule="nonzero"/></clipPath><clipPath id="d04b4bc66a"><path d="M 8.921875 0.238281 L 124.796875 0.238281 C 129.351562 0.238281 133.046875 3.929688 133.046875 8.488281 L 133.046875 38.578125 C 133.046875 43.136719 129.351562 46.828125 124.796875 46.828125 L 8.921875 46.828125 C 4.367188 46.828125 0.671875 43.136719 0.671875 38.578125 L 0.671875 8.488281 C 0.671875 3.929688 4.367188 0.238281 8.921875 0.238281 Z M 8.921875 0.238281 " clip-rule="nonzero"/></clipPath><clipPath id="c0c22d632f"><rect x="0" width="134" y="0" height="47"/></clipPath><clipPath id="8e2408c524"><path d="M 0.121094 12 L 50 12 L 50 57 L 0.121094 57 Z M 0.121094 12 " clip-rule="nonzero"/></clipPath><clipPath id="63cbd79d4d"><path d="M 84 0.121094 L 130 0.121094 L 130 57 L 84 57 Z M 84 0.121094 " clip-rule="nonzero"/></clipPath><clipPath id="700fcfd92b"><path d="M 140 0.121094 L 194 0.121094 L 194 57 L 140 57 Z M 140 0.121094 " clip-rule="nonzero"/></clipPath><clipPath id="7037aee956"><path d="M 165 12 L 224.28125 12 L 224.28125 68.28125 L 165 68.28125 Z M 165 12 " clip-rule="nonzero"/></clipPath><clipPath id="2d13ae5613"><rect x="0" width="225" y="0" height="69"/></clipPath><clipPath id="d2d0bec317"><path d="M 1 0.0390625 L 11 0.0390625 L 11 10 L 1 10 Z M 1 0.0390625 " clip-rule="nonzero"/></clipPath><clipPath id="69fc4d0186"><path d="M 10 0.0390625 L 16 0.0390625 L 16 10 L 10 10 Z M 10 0.0390625 " clip-rule="nonzero"/></clipPath><clipPath id="d1732f7ef8"><path d="M 16 0.0390625 L 25 0.0390625 L 25 10 L 16 10 Z M 16 0.0390625 " clip-rule="nonzero"/></clipPath><clipPath id="072cee31e4"><path d="M 23 0.0390625 L 33 0.0390625 L 33 10 L 23 10 Z M 23 0.0390625 " clip-rule="nonzero"/></clipPath><clipPath id="dad22cec24"><path d="M 33 0.0390625 L 43 0.0390625 L 43 10 L 33 10 Z M 33 0.0390625 " clip-rule="nonzero"/></clipPath><clipPath id="0d540d6a1b"><path d="M 42 0.0390625 L 51 0.0390625 L 51 10 L 42 10 Z M 42 0.0390625 " clip-rule="nonzero"/></clipPath><clipPath id="3e009d7040"><path d="M 51 0.0390625 L 60 0.0390625 L 60 10 L 51 10 Z M 51 0.0390625 " clip-rule="nonzero"/></clipPath><clipPath id="f4dcb82d80"><rect x="0" width="63" y="0" height="11"/></clipPath><clipPath id="876748747c"><path d="M 274.09375 193.03125 L 337.84375 193.03125 L 337.84375 224.53125 L 274.09375 224.53125 Z M 274.09375 193.03125 " clip-rule="nonzero"/></clipPath><clipPath id="abcfeede63"><path d="M 39.320312 193.03125 L 103 193.03125 L 103 224.53125 L 39.320312 224.53125 Z M 39.320312 193.03125 " clip-rule="nonzero"/></clipPath><clipPath id="b85736aa5e"><path d="M 0.320312 0.03125 L 63.71875 0.03125 L 63.71875 31.53125 L 0.320312 31.53125 Z M 0.320312 0.03125 " clip-rule="nonzero"/></clipPath><clipPath id="7cec26f143"><rect x="0" width="64" y="0" height="32"/></clipPath></defs><g clip-path="url(#efedcfa389)"><g clip-path="url(#0015b5d701)"><g transform="matrix(1, 0, 0, 1, 113, 167)"><g clip-path="url(#c0c22d632f)"><g clip-path="url(#b100aa170a)"><g clip-path="url(#d04b4bc66a)"><path fill="#0d0d0d" d="M 0.671875 0.238281 L 132.988281 0.238281 L 132.988281 46.828125 L 0.671875 46.828125 Z M 0.671875 0.238281 " fill-opacity="1" fill-rule="nonzero"/></g></g></g></g></g></g><g transform="matrix(1, 0, 0, 1, 75, 147)"><g clip-path="url(#2d13ae5613)"><g clip-path="url(#8e2408c524)"><g fill="#0d0d0d" fill-opacity="1"><g transform="translate(7.924945, 48.799859)"><g><path d="M -4.671875 -21.535156 C -4.277344 -24.34375 -3.914062 -26.320312 -3.589844 -27.464844 L 3.691406 -25.382812 L -3.652344 -27.21875 C -2.976562 -29.929688 -1.675781 -32.0625 0.242188 -33.625 L 0.320312 -33.6875 L 0.402344 -33.75 C 2.019531 -34.996094 4.050781 -35.753906 6.488281 -36.023438 L 7.328125 -28.5 L 5.972656 -35.949219 C 6.84375 -36.105469 7.863281 -36.183594 9.027344 -36.183594 L 41.695312 -36.183594 L 40.5625 -27.621094 C 40.148438 -24.496094 39.703125 -22.246094 39.226562 -20.875 L 32.074219 -23.363281 L 39.285156 -21.046875 C 38.839844 -19.671875 38.207031 -18.449219 37.382812 -17.375 C 36.417969 -16.121094 35.242188 -15.132812 33.859375 -14.40625 C 32.9375 -13.945312 32 -13.621094 31.050781 -13.429688 C 30.71875 -13.363281 30.320312 -13.289062 29.851562 -13.203125 C 28.675781 -13.003906 26.933594 -12.90625 24.632812 -12.90625 L 12.316406 -12.90625 C 12.847656 -12.90625 13.445312 -13.019531 14.105469 -13.238281 L 12.941406 -12.851562 L 11.710938 -12.851562 C 12.769531 -12.851562 13.78125 -13.09375 14.75 -13.578125 C 15.96875 -14.1875 16.929688 -15.074219 17.625 -16.238281 L 17.148438 -15.4375 L 16.488281 -14.777344 C 17.113281 -15.402344 17.597656 -16.101562 17.9375 -16.871094 C 18.042969 -17.105469 18.125 -17.328125 18.183594 -17.535156 L 10.902344 -19.613281 L 18.476562 -19.613281 C 18.476562 -19.019531 18.378906 -18.175781 18.1875 -17.085938 L 10.730469 -18.402344 L 10.730469 -25.976562 L 26.277344 -25.976562 C 27.582031 -25.976562 28.675781 -25.875 29.5625 -25.679688 L 27.921875 -18.289062 L 28.628906 -25.828125 C 31.910156 -25.519531 34.429688 -24.328125 36.183594 -22.253906 L 30.402344 -17.363281 L 36.003906 -22.457031 C 37.703125 -20.589844 38.550781 -18.144531 38.550781 -15.113281 L 38.550781 -14.769531 C 38.550781 -14.164062 38.5 -13.359375 38.394531 -12.351562 C 38.3125 -11.523438 38.1875 -10.496094 38.023438 -9.269531 L 37.734375 -7.121094 C 37.5625 -5.703125 37.367188 -4.476562 37.148438 -3.4375 C 36.945312 -2.464844 36.765625 -1.691406 36.609375 -1.121094 C 36.085938 0.71875 35.351562 2.226562 34.410156 3.402344 L 34.148438 3.730469 L 33.851562 4.027344 C 32.441406 5.4375 30.667969 6.433594 28.527344 7.015625 L 27.917969 7.183594 L 27.289062 7.246094 C 26.804688 7.292969 26.03125 7.351562 24.972656 7.414062 C 23.859375 7.480469 22.496094 7.515625 20.882812 7.515625 L 8.191406 7.515625 C 6.535156 7.515625 5.164062 7.480469 4.085938 7.414062 C 3.089844 7.351562 2.347656 7.296875 1.851562 7.253906 L 1.039062 7.179688 L 0.257812 6.933594 C -1.9375 6.238281 -3.664062 5.101562 -4.933594 3.519531 L -5.1875 3.199219 L -5.40625 2.855469 C -6.464844 1.191406 -6.996094 -0.816406 -6.996094 -3.171875 C -6.996094 -4.285156 -6.800781 -6.28125 -6.40625 -9.15625 L -5.511719 -15.707031 L 20.074219 -15.707031 C 20.210938 -15.707031 20.289062 -15.707031 20.3125 -15.707031 C 20.753906 -15.746094 21.117188 -15.765625 21.402344 -15.765625 L 21.402344 -8.191406 L 19.917969 -15.617188 C 18.609375 -15.355469 17.496094 -14.761719 16.566406 -13.835938 L 21.921875 -8.480469 L 15.621094 -12.679688 C 14.925781 -11.640625 14.582031 -10.46875 14.582031 -9.171875 L 14.582031 -10.402344 L 14.96875 -11.566406 C 14.875 -11.285156 14.808594 -11.03125 14.773438 -10.800781 C 14.769531 -10.777344 14.769531 -10.761719 14.765625 -10.753906 C 14.769531 -10.777344 14.773438 -10.808594 14.777344 -10.847656 L 22.324219 -10.269531 L 22.324219 -2.695312 L 8.191406 -2.695312 C 7.339844 -2.695312 6.582031 -2.707031 5.921875 -2.730469 C 5.148438 -2.753906 4.492188 -2.796875 3.953125 -2.859375 C 1.355469 -3.136719 -0.785156 -3.988281 -2.46875 -5.410156 L -2.972656 -5.835938 L -3.394531 -6.34375 C -4.949219 -8.210938 -5.726562 -10.480469 -5.726562 -13.152344 L -5.726562 -14.59375 L -5.578125 -15.332031 C -5.523438 -15.605469 -5.449219 -16.058594 -5.347656 -16.699219 C -5.242188 -17.398438 -5.113281 -18.300781 -4.96875 -19.402344 L -4.671875 -21.519531 Z M 10.328125 -19.4375 L 10.042969 -17.402344 C 9.882812 -16.199219 9.742188 -15.195312 9.617188 -14.394531 C 9.484375 -13.535156 9.371094 -12.855469 9.269531 -12.359375 L 1.847656 -13.84375 L 9.417969 -13.84375 L 9.417969 -13.152344 C 9.417969 -13.457031 9.363281 -13.792969 9.253906 -14.164062 C 9.054688 -14.839844 8.71875 -15.464844 8.238281 -16.039062 L 2.421875 -11.191406 L 7.3125 -16.972656 C 6.835938 -17.375 6.34375 -17.664062 5.835938 -17.839844 C 5.734375 -17.875 5.640625 -17.898438 5.5625 -17.914062 C 5.554688 -17.917969 5.546875 -17.917969 5.542969 -17.917969 C 5.554688 -17.917969 5.582031 -17.914062 5.625 -17.910156 C 5.777344 -17.894531 6.042969 -17.878906 6.425781 -17.867188 C 6.917969 -17.847656 7.507812 -17.839844 8.191406 -17.839844 L 30.503906 -17.839844 L 29.875 -9.6875 C 29.789062 -8.566406 29.609375 -7.597656 29.335938 -6.777344 L 22.152344 -9.171875 L 29.722656 -9.171875 C 29.722656 -7.414062 29.222656 -5.78125 28.222656 -4.28125 L 27.804688 -3.65625 L 27.277344 -3.125 C 26.042969 -1.890625 24.578125 -1.105469 22.886719 -0.765625 L 22.152344 -0.621094 L 21.402344 -0.621094 C 21.523438 -0.621094 21.621094 -0.621094 21.703125 -0.628906 C 21.675781 -0.625 21.632812 -0.621094 21.570312 -0.617188 C 21.128906 -0.582031 20.632812 -0.5625 20.074219 -0.5625 L 1.097656 -0.5625 L 1.097656 -8.132812 L 8.597656 -7.109375 C 8.300781 -4.914062 8.148438 -3.597656 8.148438 -3.171875 C 8.148438 -3.246094 8.128906 -3.371094 8.09375 -3.546875 C 7.972656 -4.128906 7.734375 -4.707031 7.367188 -5.277344 L 0.980469 -1.210938 L 6.894531 -5.941406 C 6.472656 -6.46875 5.996094 -6.890625 5.460938 -7.207031 C 5.222656 -7.347656 5.007812 -7.449219 4.820312 -7.507812 L 2.539062 -0.289062 L 3.222656 -7.828125 C 3.574219 -7.796875 4.179688 -7.753906 5.03125 -7.703125 C 5.796875 -7.652344 6.847656 -7.628906 8.191406 -7.628906 L 20.882812 -7.628906 C 22.191406 -7.628906 23.253906 -7.652344 24.0625 -7.703125 C 24.925781 -7.753906 25.5 -7.792969 25.785156 -7.824219 L 26.535156 -0.289062 L 24.542969 -7.59375 C 24.429688 -7.5625 24.285156 -7.5 24.117188 -7.414062 C 23.773438 -7.230469 23.449219 -6.988281 23.144531 -6.679688 L 28.5 -1.328125 L 22.585938 -6.058594 C 22.34375 -5.753906 22.15625 -5.460938 22.03125 -5.179688 C 22.011719 -5.140625 22 -5.109375 21.992188 -5.089844 C 22 -5.113281 22.003906 -5.121094 22 -5.109375 C 22.074219 -5.382812 22.183594 -5.863281 22.328125 -6.542969 C 22.457031 -7.15625 22.589844 -8.023438 22.726562 -9.148438 L 23.011719 -11.269531 C 23.15625 -12.347656 23.261719 -13.222656 23.332031 -13.898438 C 23.382812 -14.390625 23.40625 -14.679688 23.40625 -14.769531 L 23.40625 -15.113281 C 23.40625 -15.015625 23.4375 -14.84375 23.5 -14.605469 C 23.714844 -13.765625 24.148438 -12.988281 24.800781 -12.269531 L 24.707031 -12.371094 L 24.621094 -12.472656 C 25.265625 -11.714844 25.996094 -11.179688 26.824219 -10.875 C 26.980469 -10.816406 27.121094 -10.773438 27.242188 -10.746094 C 27.261719 -10.742188 27.273438 -10.742188 27.28125 -10.742188 C 27.265625 -10.742188 27.242188 -10.746094 27.214844 -10.75 L 26.742188 -10.792969 L 26.277344 -10.894531 C 26.472656 -10.851562 26.621094 -10.828125 26.71875 -10.820312 C 26.621094 -10.828125 26.476562 -10.832031 26.277344 -10.832031 L 1.703125 -10.832031 L 3.273438 -19.71875 C 3.316406 -19.964844 3.347656 -20.148438 3.363281 -20.265625 C 3.34375 -20.113281 3.332031 -19.894531 3.332031 -19.613281 L 3.332031 -20.675781 L 3.621094 -21.695312 C 4.058594 -23.222656 4.777344 -24.484375 5.78125 -25.488281 L 11.132812 -20.132812 L 4.640625 -24.027344 C 5.453125 -25.386719 6.566406 -26.417969 7.976562 -27.121094 C 9.140625 -27.703125 10.382812 -27.992188 11.710938 -27.992188 L 11.710938 -20.421875 L 9.316406 -27.605469 C 10.207031 -27.902344 11.207031 -28.050781 12.316406 -28.050781 L 24.632812 -28.050781 C 26.101562 -28.050781 26.9375 -28.070312 27.144531 -28.101562 C 27.523438 -28.171875 27.835938 -28.230469 28.082031 -28.28125 C 27.707031 -28.203125 27.289062 -28.050781 26.832031 -27.820312 C 26.25 -27.519531 25.769531 -27.113281 25.378906 -26.609375 C 25.132812 -26.289062 24.960938 -25.980469 24.867188 -25.679688 L 24.921875 -25.851562 C 24.953125 -25.933594 25.011719 -26.226562 25.105469 -26.730469 C 25.246094 -27.472656 25.394531 -28.433594 25.550781 -29.605469 L 33.054688 -28.613281 L 33.054688 -21.042969 L 9.027344 -21.042969 C 8.84375 -21.042969 8.695312 -21.039062 8.582031 -21.03125 C 8.5625 -21.027344 8.550781 -21.027344 8.546875 -21.027344 C 8.582031 -21.03125 8.628906 -21.039062 8.679688 -21.046875 L 8.421875 -21 L 8.164062 -20.972656 C 8.136719 -20.96875 8.117188 -20.964844 8.097656 -20.964844 C 8.15625 -20.976562 8.226562 -20.996094 8.3125 -21.023438 C 8.753906 -21.167969 9.195312 -21.40625 9.636719 -21.746094 L 5.019531 -27.75 L 9.792969 -21.871094 C 10.234375 -22.230469 10.578125 -22.632812 10.828125 -23.078125 C 10.9375 -23.273438 11.007812 -23.429688 11.039062 -23.546875 L 11.007812 -23.425781 L 10.972656 -23.300781 C 10.839844 -22.832031 10.621094 -21.539062 10.324219 -19.425781 Z M 10.328125 -19.4375 "/></g></g></g></g><g fill="#0d0d0d" fill-opacity="1"><g transform="translate(40.690741, 48.799859)"><g><path d="M -4.679688 -21.480469 C -4.421875 -23.40625 -4.214844 -24.738281 -4.058594 -25.46875 C -3.816406 -26.71875 -3.492188 -27.847656 -3.09375 -28.863281 C -2.480469 -30.425781 -1.65625 -31.722656 -0.625 -32.757812 L 4.730469 -27.402344 L -0.804688 -32.570312 C 1.023438 -34.527344 3.4375 -35.664062 6.433594 -35.972656 L 7.210938 -28.441406 L 5.855469 -35.890625 C 6.726562 -36.046875 7.773438 -36.128906 9 -36.128906 L 25.152344 -36.128906 C 26.683594 -36.128906 27.953125 -36.105469 28.964844 -36.0625 C 30.5 -35.996094 31.761719 -35.816406 32.75 -35.519531 L 30.574219 -28.265625 L 31.820312 -35.738281 C 33.140625 -35.515625 34.347656 -35.070312 35.4375 -34.398438 C 36.710938 -33.613281 37.738281 -32.585938 38.523438 -31.3125 L 32.074219 -27.34375 L 38.277344 -31.6875 C 39.460938 -30 40.050781 -27.917969 40.050781 -25.441406 L 40.050781 -24.863281 C 40.050781 -23.738281 39.847656 -21.882812 39.4375 -19.296875 L 37.726562 -7.082031 C 37.425781 -4.800781 37.144531 -3.132812 36.882812 -2.085938 L 29.535156 -3.921875 L 36.941406 -2.335938 C 36.5 -0.273438 35.816406 1.421875 34.898438 2.753906 L 28.671875 -1.558594 L 35.027344 2.554688 C 34.152344 3.90625 32.996094 5 31.550781 5.828125 C 30.464844 6.453125 29.246094 6.90625 27.898438 7.183594 L 27.511719 7.265625 L 27.117188 7.304688 C 26.652344 7.351562 25.957031 7.40625 25.03125 7.46875 C 24.015625 7.539062 22.765625 7.570312 21.285156 7.570312 L 7.730469 7.570312 C 6.320312 7.570312 5.121094 7.535156 4.132812 7.464844 C 3.277344 7.40625 2.613281 7.351562 2.140625 7.308594 L 1.804688 7.28125 L 1.472656 7.21875 C 0.277344 7 -0.820312 6.628906 -1.820312 6.097656 C -3.09375 5.417969 -4.160156 4.523438 -5.019531 3.40625 L -5.464844 2.828125 L -5.792969 2.175781 C -6.171875 1.417969 -6.464844 0.585938 -6.679688 -0.3125 C -6.890625 -1.210938 -6.996094 -2.144531 -6.996094 -3.113281 L -6.996094 -4.183594 L -6.957031 -4.5625 C -6.875 -5.398438 -6.691406 -6.90625 -6.414062 -9.089844 L -6.402344 -9.191406 L -5.953125 -12.089844 C -5.789062 -13.144531 -5.613281 -14.355469 -5.425781 -15.722656 L -5.414062 -15.808594 L -5.402344 -15.890625 C -5.1875 -17.265625 -5.023438 -18.382812 -4.921875 -19.238281 C -4.820312 -20.066406 -4.753906 -20.671875 -4.722656 -21.058594 L -4.707031 -21.269531 Z M 10.332031 -19.480469 L 2.828125 -20.480469 L 10.375 -19.898438 C 10.328125 -19.285156 10.242188 -18.449219 10.113281 -17.394531 C 9.984375 -16.367188 9.800781 -15.078125 9.554688 -13.53125 L 2.078125 -14.710938 L 9.582031 -13.695312 C 9.378906 -12.21875 9.191406 -10.910156 9.011719 -9.773438 L 8.578125 -6.976562 L 1.097656 -8.132812 L 8.609375 -7.179688 C 8.347656 -5.128906 8.179688 -3.753906 8.113281 -3.054688 L 0.578125 -3.808594 L 8.148438 -3.808594 L 8.148438 -3.113281 C 8.148438 -3.316406 8.121094 -3.539062 8.0625 -3.78125 C 8.003906 -4.03125 7.902344 -4.300781 7.753906 -4.597656 L 0.980469 -1.210938 L 6.984375 -5.828125 C 6.507812 -6.445312 5.941406 -6.929688 5.28125 -7.277344 C 4.898438 -7.484375 4.53125 -7.617188 4.179688 -7.679688 L 2.828125 -0.230469 L 3.511719 -7.773438 C 3.886719 -7.738281 4.453125 -7.695312 5.210938 -7.640625 C 5.839844 -7.59375 6.679688 -7.570312 7.730469 -7.570312 L 21.285156 -7.570312 C 22.421875 -7.570312 23.328125 -7.59375 24.003906 -7.640625 C 24.769531 -7.691406 25.304688 -7.734375 25.609375 -7.765625 L 26.363281 -0.230469 L 24.828125 -7.644531 C 24.59375 -7.597656 24.320312 -7.480469 24.003906 -7.300781 C 23.328125 -6.914062 22.765625 -6.371094 22.3125 -5.671875 L 22.445312 -5.867188 C 22.25 -5.585938 22.113281 -5.339844 22.035156 -5.125 C 22.058594 -5.1875 22.089844 -5.316406 22.132812 -5.507812 L 22.160156 -5.636719 L 22.191406 -5.757812 C 22.3125 -6.25 22.492188 -7.390625 22.730469 -9.183594 L 24.480469 -21.660156 C 24.765625 -23.460938 24.90625 -24.527344 24.90625 -24.863281 L 24.90625 -25.441406 C 24.90625 -25.351562 24.929688 -25.210938 24.96875 -25.007812 C 25.117188 -24.320312 25.417969 -23.652344 25.871094 -23.003906 L 25.742188 -23.183594 L 25.625 -23.375 C 26.101562 -22.601562 26.726562 -21.976562 27.5 -21.5 C 28.09375 -21.136719 28.703125 -20.902344 29.328125 -20.796875 L 28.859375 -20.878906 L 28.398438 -21.015625 C 28.625 -20.945312 28.792969 -20.90625 28.90625 -20.894531 C 28.773438 -20.910156 28.578125 -20.921875 28.320312 -20.933594 C 27.523438 -20.964844 26.46875 -20.984375 25.152344 -20.984375 L 9 -20.984375 C 8.777344 -20.984375 8.597656 -20.980469 8.464844 -20.96875 C 8.4375 -20.96875 8.417969 -20.96875 8.414062 -20.96875 C 8.453125 -20.972656 8.503906 -20.980469 8.566406 -20.992188 L 8.28125 -20.9375 L 7.988281 -20.910156 C 8.175781 -20.925781 8.402344 -20.996094 8.679688 -21.109375 C 9.265625 -21.355469 9.796875 -21.730469 10.265625 -22.234375 L 10.085938 -22.046875 C 10.390625 -22.351562 10.636719 -22.667969 10.832031 -22.992188 C 10.910156 -23.125 10.964844 -23.230469 10.996094 -23.316406 C 10.933594 -23.160156 10.851562 -22.816406 10.75 -22.296875 C 10.675781 -21.953125 10.535156 -21.011719 10.332031 -19.480469 Z M 13.84375 -12.90625 L 12.691406 -12.90625 C 13.003906 -12.90625 13.386719 -12.964844 13.835938 -13.074219 L 13.660156 -13.03125 L 13.484375 -12.996094 C 13.808594 -13.0625 14.144531 -13.167969 14.492188 -13.316406 C 15.25 -13.644531 15.933594 -14.109375 16.546875 -14.722656 C 17.296875 -15.472656 17.835938 -16.308594 18.160156 -17.222656 C 18.195312 -17.328125 18.226562 -17.425781 18.25 -17.507812 L 10.84375 -19.09375 L 18.417969 -19.09375 C 18.417969 -18.699219 18.382812 -18.253906 18.3125 -17.765625 C 18.273438 -17.492188 18.222656 -17.191406 18.15625 -16.859375 L 10.730469 -18.34375 L 18.226562 -17.285156 L 16.785156 -7.074219 L 9.289062 -8.132812 L 9.289062 -15.707031 L 21.285156 -15.707031 L 21.285156 -8.132812 L 19.207031 -15.414062 C 19 -15.355469 18.78125 -15.273438 18.542969 -15.167969 C 17.773438 -14.828125 17.078125 -14.34375 16.453125 -13.71875 C 15.867188 -13.132812 15.402344 -12.457031 15.058594 -11.683594 C 14.664062 -10.792969 14.464844 -9.859375 14.464844 -8.882812 L 14.464844 -11.175781 L 15.738281 -13.085938 C 15.234375 -12.332031 14.910156 -11.546875 14.761719 -10.730469 C 14.765625 -10.769531 14.78125 -10.875 14.800781 -11.046875 L 14.8125 -11.15625 L 16.269531 -21.53125 L 23.769531 -20.480469 L 23.769531 -12.90625 Z M 13.84375 -28.050781 L 32.476562 -28.050781 L 29.824219 -9.15625 L 22.324219 -10.210938 L 29.851562 -9.375 C 29.792969 -8.855469 29.730469 -8.402344 29.660156 -8.019531 C 29.433594 -6.78125 28.992188 -5.667969 28.335938 -4.683594 L 22.035156 -8.882812 L 29.609375 -8.882812 C 29.609375 -7.714844 29.371094 -6.601562 28.898438 -5.535156 C 28.480469 -4.589844 27.898438 -3.75 27.160156 -3.011719 C 26.160156 -2.007812 24.894531 -1.289062 23.367188 -0.851562 L 22.347656 -0.5625 L 0.570312 -0.5625 L 3.261719 -19.617188 L 3.304688 -19.828125 C 3.3125 -19.871094 3.320312 -19.902344 3.324219 -19.925781 C 3.324219 -19.933594 3.324219 -19.933594 3.324219 -19.933594 C 3.324219 -19.925781 3.320312 -19.917969 3.320312 -19.90625 C 3.289062 -19.6875 3.273438 -19.414062 3.273438 -19.09375 L 3.273438 -19.898438 L 3.441406 -20.679688 C 3.566406 -21.265625 3.710938 -21.796875 3.878906 -22.265625 C 4.316406 -23.507812 4.96875 -24.5625 5.835938 -25.429688 C 7.070312 -26.664062 8.628906 -27.46875 10.515625 -27.847656 L 12 -20.421875 L 10.164062 -27.769531 C 10.917969 -27.957031 11.761719 -28.050781 12.691406 -28.050781 Z M 13.84375 -28.050781 "/></g></g></g><g fill="#0d0d0d" fill-opacity="1"><g transform="translate(73.687272, 48.799859)"><g><path d="M 11.421875 -36.128906 L 41.761719 -36.128906 L 40.617188 -27.554688 C 40.453125 -26.300781 40.292969 -25.238281 40.140625 -24.367188 C 39.964844 -23.367188 39.789062 -22.539062 39.609375 -21.890625 L 32.304688 -23.882812 L 39.71875 -22.347656 C 39.140625 -19.546875 37.925781 -17.351562 36.078125 -15.769531 C 34.253906 -14.171875 31.820312 -13.246094 28.78125 -12.992188 L 28.46875 -12.964844 L 28.152344 -12.964844 C 27.835938 -12.964844 27.355469 -12.957031 26.710938 -12.9375 L 23.886719 -12.851562 L 13.441406 -12.851562 C 12.972656 -12.851562 12.507812 -12.878906 12.039062 -12.9375 C 12.199219 -12.917969 12.378906 -12.90625 12.574219 -12.90625 C 13.421875 -12.90625 14.300781 -13.136719 15.210938 -13.589844 L 13.613281 -12.792969 L 11.824219 -12.792969 C 12.53125 -12.792969 13.226562 -12.90625 13.917969 -13.136719 C 14.960938 -13.484375 15.875 -14.050781 16.660156 -14.835938 C 17.183594 -15.359375 17.597656 -15.925781 17.90625 -16.546875 C 18.007812 -16.75 18.089844 -16.9375 18.144531 -17.105469 L 10.960938 -19.5 L 18.53125 -19.5 C 18.53125 -18.804688 18.425781 -17.925781 18.210938 -16.859375 L 10.789062 -18.34375 L 18.285156 -17.292969 L 16.84375 -7.023438 L 9.34375 -8.078125 L 9.34375 -15.648438 L 38.839844 -15.648438 L 37.738281 -7.105469 C 37.574219 -5.824219 37.414062 -4.730469 37.265625 -3.832031 C 37.089844 -2.773438 36.910156 -1.90625 36.726562 -1.238281 L 29.421875 -3.230469 L 36.824219 -1.644531 C 36.21875 1.191406 34.921875 3.402344 32.941406 4.988281 C 31.210938 6.347656 29.039062 7.15625 26.425781 7.417969 C 25.851562 7.476562 25.085938 7.515625 24.128906 7.539062 C 23.296875 7.5625 22.253906 7.570312 21 7.570312 L 8.078125 7.570312 C 6.527344 7.570312 5.230469 7.539062 4.179688 7.46875 C 3.230469 7.40625 2.511719 7.355469 2.027344 7.308594 L 1.65625 7.277344 L 1.292969 7.207031 C 0.0703125 6.976562 -1.046875 6.570312 -2.058594 5.996094 C -3.351562 5.265625 -4.414062 4.296875 -5.246094 3.097656 L -5.550781 2.65625 L -5.792969 2.175781 C -6.171875 1.417969 -6.464844 0.585938 -6.679688 -0.3125 C -6.890625 -1.210938 -6.996094 -2.144531 -6.996094 -3.113281 L -6.996094 -3.863281 L -6.964844 -4.203125 C -6.917969 -4.71875 -6.839844 -5.398438 -6.730469 -6.242188 C -6.632812 -7.015625 -6.503906 -7.972656 -6.347656 -9.109375 L -6.316406 -9.320312 C -6.207031 -9.976562 -6.078125 -10.792969 -5.929688 -11.773438 C -5.789062 -12.695312 -5.648438 -13.800781 -5.507812 -15.085938 L -5.496094 -15.1875 L -5.480469 -15.289062 C -5.285156 -16.703125 -5.105469 -17.9375 -4.949219 -18.984375 C -4.808594 -19.90625 -4.707031 -20.664062 -4.640625 -21.257812 L -4.617188 -21.464844 L -4.585938 -21.667969 C -4.398438 -22.789062 -4.25 -23.710938 -4.136719 -24.429688 C -4.042969 -25.046875 -3.984375 -25.480469 -3.957031 -25.734375 L -3.902344 -26.28125 L -3.769531 -26.816406 C -3.097656 -29.507812 -1.957031 -31.597656 -0.347656 -33.082031 L -0.246094 -33.175781 L -0.140625 -33.265625 C 1.570312 -34.734375 3.695312 -35.613281 6.226562 -35.90625 L 7.09375 -28.382812 L 6.023438 -35.878906 C 7.1875 -36.042969 8.988281 -36.128906 11.421875 -36.128906 Z M 11.421875 -20.984375 C 9.703125 -20.984375 8.617188 -20.953125 8.167969 -20.886719 L 8.066406 -20.871094 L 7.964844 -20.859375 C 8.078125 -20.875 8.234375 -20.917969 8.425781 -20.988281 C 8.878906 -21.160156 9.308594 -21.417969 9.714844 -21.769531 L 4.789062 -27.515625 L 9.925781 -21.953125 C 10.386719 -22.382812 10.726562 -22.820312 10.945312 -23.273438 C 10.96875 -23.328125 10.984375 -23.359375 10.988281 -23.375 C 10.96875 -23.320312 10.949219 -23.242188 10.921875 -23.140625 L 3.578125 -24.980469 L 11.109375 -24.226562 C 11.058594 -23.707031 10.964844 -23.007812 10.828125 -22.125 C 10.710938 -21.34375 10.550781 -20.363281 10.351562 -19.175781 L 2.882812 -20.421875 L 10.410156 -19.585938 C 10.324219 -18.796875 10.195312 -17.839844 10.027344 -16.722656 C 9.875 -15.734375 9.707031 -14.5625 9.519531 -13.207031 L 2.019531 -14.25 L 9.542969 -13.414062 C 9.378906 -11.929688 9.214844 -10.628906 9.042969 -9.511719 C 8.886719 -8.457031 8.746094 -7.5625 8.621094 -6.832031 L 1.152344 -8.078125 L 8.65625 -7.042969 C 8.503906 -5.949219 8.382812 -5.042969 8.289062 -4.316406 C 8.203125 -3.65625 8.148438 -3.164062 8.117188 -2.832031 L 0.578125 -3.519531 L 8.148438 -3.519531 L 8.148438 -3.113281 C 8.148438 -3.316406 8.121094 -3.539062 8.0625 -3.78125 C 8.003906 -4.03125 7.902344 -4.300781 7.753906 -4.597656 L 0.980469 -1.210938 L 7.207031 -5.523438 C 6.722656 -6.222656 6.121094 -6.773438 5.40625 -7.179688 C 4.96875 -7.425781 4.542969 -7.589844 4.128906 -7.667969 L 2.710938 -0.230469 L 3.398438 -7.773438 C 3.753906 -7.738281 4.34375 -7.695312 5.164062 -7.640625 C 5.886719 -7.59375 6.855469 -7.570312 8.078125 -7.570312 L 21 -7.570312 C 22.128906 -7.570312 23.046875 -7.582031 23.75 -7.597656 C 24.332031 -7.613281 24.722656 -7.628906 24.917969 -7.648438 C 24.980469 -7.65625 25.023438 -7.660156 25.050781 -7.667969 C 25.007812 -7.660156 24.949219 -7.644531 24.875 -7.621094 C 24.429688 -7.476562 23.964844 -7.214844 23.480469 -6.835938 C 22.941406 -6.40625 22.53125 -5.917969 22.242188 -5.367188 C 22.121094 -5.136719 22.046875 -4.953125 22.015625 -4.816406 L 22.0625 -5.019531 L 22.117188 -5.222656 C 22.164062 -5.398438 22.234375 -5.765625 22.328125 -6.320312 C 22.445312 -7.039062 22.578125 -7.945312 22.71875 -9.046875 L 30.230469 -8.078125 L 30.230469 -0.503906 L 0.636719 -0.503906 L 3.320312 -19.613281 L 3.363281 -19.828125 C 3.394531 -20 3.417969 -20.117188 3.429688 -20.1875 C 3.402344 -20.007812 3.390625 -19.777344 3.390625 -19.5 L 3.390625 -20.726562 L 3.777344 -21.894531 C 4.269531 -23.371094 4.996094 -24.585938 5.953125 -25.546875 C 6.851562 -26.445312 7.910156 -27.097656 9.128906 -27.503906 C 9.992188 -27.792969 10.890625 -27.9375 11.824219 -27.9375 L 11.824219 -20.363281 L 8.441406 -27.136719 C 9.660156 -27.746094 11.039062 -28.050781 12.574219 -28.050781 C 13.003906 -28.050781 13.453125 -28.023438 13.917969 -27.964844 C 13.761719 -27.984375 13.601562 -27.992188 13.441406 -27.992188 L 23.769531 -27.992188 L 23.769531 -20.421875 L 23.527344 -27.988281 L 26.304688 -28.078125 C 27.082031 -28.097656 27.699219 -28.109375 28.152344 -28.109375 L 28.152344 -20.535156 L 27.523438 -28.082031 C 27.617188 -28.089844 27.6875 -28.097656 27.738281 -28.109375 C 27.707031 -28.101562 27.65625 -28.089844 27.585938 -28.066406 C 27.109375 -27.910156 26.652344 -27.644531 26.222656 -27.265625 C 25.699219 -26.816406 25.304688 -26.320312 25.039062 -25.773438 C 24.976562 -25.652344 24.929688 -25.539062 24.898438 -25.4375 C 24.890625 -25.417969 24.886719 -25.402344 24.882812 -25.386719 C 24.886719 -25.394531 24.886719 -25.402344 24.890625 -25.417969 L 24.9375 -25.648438 L 25 -25.875 C 25.054688 -26.070312 25.128906 -26.4375 25.222656 -26.976562 C 25.339844 -27.644531 25.46875 -28.503906 25.609375 -29.554688 L 33.113281 -28.554688 L 33.113281 -20.984375 Z M 11.421875 -20.984375 "/></g></g></g><g clip-path="url(#63cbd79d4d)"><g fill="#0d0d0d" fill-opacity="1"><g transform="translate(106.453068, 48.799859)"><g><path d="M 21.925781 -39.355469 L 19.703125 -23.117188 L -3.554688 -23.117188 L -2.425781 -33.308594 L -2.386719 -33.535156 C -2.199219 -34.625 -2.046875 -35.511719 -1.9375 -36.199219 C -1.796875 -37.054688 -1.675781 -37.726562 -1.566406 -38.21875 L 5.828125 -36.574219 L -1.609375 -38.011719 C -1.105469 -40.605469 -0.160156 -42.660156 1.226562 -44.171875 L 6.808594 -39.054688 L 1.109375 -44.042969 C 2.859375 -46.042969 5.144531 -47.257812 7.964844 -47.691406 L 8.050781 -47.707031 L 8.136719 -47.71875 C 9.34375 -47.875 11.441406 -47.953125 14.421875 -47.953125 L 23.101562 -47.953125 Z M 6.921875 -41.410156 L 14.421875 -40.382812 L 14.421875 -32.808594 C 12.097656 -32.808594 10.652344 -32.773438 10.09375 -32.699219 L 9.113281 -40.207031 L 10.265625 -32.726562 C 10.546875 -32.769531 10.851562 -32.871094 11.175781 -33.03125 C 11.675781 -33.285156 12.121094 -33.628906 12.503906 -34.070312 L 12.449219 -34.003906 L 12.390625 -33.9375 C 12.808594 -34.394531 13.105469 -34.851562 13.285156 -35.304688 C 13.300781 -35.335938 13.308594 -35.367188 13.316406 -35.390625 L 13.316406 -35.382812 C 13.300781 -35.324219 13.28125 -35.238281 13.261719 -35.136719 L 13.242188 -35.035156 L 13.21875 -34.933594 C 13.171875 -34.726562 13.105469 -34.34375 13.011719 -33.777344 C 12.894531 -33.039062 12.734375 -32.101562 12.539062 -30.960938 L 5.078125 -32.246094 L 12.601562 -31.410156 L 12.429688 -29.855469 L 4.902344 -30.691406 L 4.902344 -38.261719 L 13.09375 -38.261719 L 13.09375 -30.691406 L 5.59375 -31.71875 Z M 4.613281 -36.183594 L 21.515625 -36.183594 L 17.421875 -7.023438 C 17.261719 -5.898438 17.121094 -4.953125 16.996094 -4.183594 C 16.828125 -3.117188 16.636719 -2.226562 16.425781 -1.515625 L 9.171875 -3.691406 L 16.605469 -2.253906 C 16.082031 0.457031 15.003906 2.625 13.371094 4.257812 L 13.195312 4.4375 L 13.003906 4.601562 C 11.160156 6.214844 8.8125 7.15625 5.957031 7.421875 C 5.421875 7.476562 4.703125 7.515625 3.808594 7.539062 C 3.03125 7.5625 2.085938 7.570312 0.980469 7.570312 L -21.648438 7.570312 L -6.761719 -5.660156 C -6.4375 -5.949219 -6.179688 -6.179688 -5.988281 -6.351562 C -5.863281 -6.464844 -5.789062 -6.535156 -5.757812 -6.566406 C -5.5625 -6.761719 -5.414062 -6.914062 -5.3125 -7.019531 C -5.296875 -7.035156 -5.285156 -7.050781 -5.277344 -7.058594 C -5.277344 -7.058594 -5.28125 -7.054688 -5.289062 -7.046875 C -5.367188 -6.957031 -5.449219 -6.855469 -5.539062 -6.734375 L 0.519531 -2.191406 L -5.640625 -6.59375 C -6.007812 -6.082031 -6.265625 -5.515625 -6.421875 -4.894531 L -6.148438 -5.988281 L -5.570312 -6.953125 C -5.960938 -6.300781 -6.226562 -5.640625 -6.359375 -4.976562 C -6.378906 -4.878906 -6.390625 -4.792969 -6.402344 -4.71875 L -6.402344 -4.714844 L -6.382812 -4.996094 L -1.957031 -36.183594 Z M 4.613281 -21.042969 L 4.613281 -28.613281 L 12.113281 -27.550781 L 8.652344 -3.148438 L 1.152344 -4.210938 L 8.710938 -3.707031 C 8.589844 -1.914062 8.160156 -0.398438 7.414062 0.839844 L 0.921875 -3.058594 L 8.269531 -1.222656 C 7.960938 0.015625 7.429688 1.160156 6.679688 2.210938 L 6.578125 2.351562 C 6.246094 2.792969 5.703125 3.390625 4.949219 4.144531 C 4.75 4.34375 4.5 4.578125 4.199219 4.851562 C 3.96875 5.0625 3.667969 5.332031 3.300781 5.660156 L -1.730469 0 L -1.730469 -7.570312 L 0.980469 -7.570312 C 1.949219 -7.570312 2.757812 -7.582031 3.402344 -7.597656 C 3.929688 -7.613281 4.308594 -7.632812 4.542969 -7.65625 C 4.566406 -7.65625 4.589844 -7.660156 4.605469 -7.660156 C 4.605469 -7.660156 4.601562 -7.660156 4.589844 -7.660156 C 4.519531 -7.644531 4.433594 -7.621094 4.335938 -7.585938 C 3.886719 -7.425781 3.453125 -7.160156 3.03125 -6.792969 L 8.019531 -1.097656 L 2.664062 -6.449219 C 2.269531 -6.058594 1.980469 -5.648438 1.792969 -5.222656 C 1.757812 -5.144531 1.730469 -5.082031 1.714844 -5.027344 C 1.722656 -5.046875 1.726562 -5.078125 1.738281 -5.132812 L 1.8125 -5.503906 L 1.917969 -5.867188 C 1.9375 -5.925781 1.976562 -6.152344 2.039062 -6.546875 C 2.148438 -7.238281 2.277344 -8.101562 2.425781 -9.128906 L 5.308594 -29.667969 L 12.808594 -28.613281 L 12.808594 -21.042969 Z M 4.613281 -21.042969 "/></g></g></g></g><g fill="#0d0d0d" fill-opacity="1"><g transform="translate(119.720899, 48.799859)"><g><path d="M 12.34375 -36.128906 L 27.515625 -36.128906 C 28.488281 -36.128906 29.289062 -36.09375 29.910156 -36.023438 L 29.074219 -28.5 L 29.304688 -36.066406 C 32.449219 -35.972656 34.941406 -35.078125 36.789062 -33.386719 L 31.671875 -27.804688 L 36.070312 -33.96875 C 37.660156 -32.832031 38.785156 -31.300781 39.441406 -29.371094 C 39.847656 -28.1875 40.050781 -26.875 40.050781 -25.441406 L 40.050781 -24.890625 C 40.050781 -24.261719 39.996094 -23.628906 39.890625 -22.984375 L 32.421875 -24.230469 L 39.945312 -23.394531 C 39.90625 -23.011719 39.84375 -22.496094 39.761719 -21.847656 L 39.457031 -19.402344 L 39.085938 -17.132812 L 31.613281 -18.34375 L 39.121094 -17.359375 C 38.773438 -14.695312 38.460938 -12.84375 38.1875 -11.804688 L 30.863281 -13.730469 L 38.265625 -12.144531 C 37.722656 -9.609375 36.675781 -7.5625 35.121094 -6.011719 L 35.023438 -5.910156 L 34.917969 -5.816406 C 33.214844 -4.230469 31.015625 -3.253906 28.320312 -2.882812 C 27.296875 -2.71875 25.566406 -2.640625 23.132812 -2.640625 L 10.152344 -2.640625 C 11.269531 -2.640625 12.320312 -2.886719 13.308594 -3.378906 C 13.964844 -3.707031 14.542969 -4.125 15.046875 -4.625 C 15.851562 -5.429688 16.421875 -6.339844 16.761719 -7.355469 C 16.820312 -7.539062 16.863281 -7.6875 16.886719 -7.804688 L 9.460938 -9.289062 L 17.03125 -9.289062 C 17.03125 -8.59375 16.925781 -7.714844 16.710938 -6.648438 L 9.289062 -8.132812 L 9.289062 -15.707031 L 21.980469 -15.707031 C 24.71875 -15.707031 26.625 -15.605469 27.703125 -15.402344 L 26.304688 -7.960938 L 27.246094 -15.472656 C 28.46875 -15.320312 29.589844 -15.015625 30.609375 -14.550781 C 32.101562 -13.875 33.320312 -12.902344 34.265625 -11.640625 L 28.210938 -7.09375 L 33.5625 -12.449219 C 35.339844 -10.671875 36.324219 -8.195312 36.519531 -5.015625 L 28.960938 -4.558594 L 36.351562 -6.199219 C 36.546875 -5.3125 36.648438 -4.292969 36.648438 -3.144531 L 36.648438 7.570312 L 7.269531 7.570312 C 5.921875 7.570312 4.777344 7.535156 3.832031 7.464844 C 3.046875 7.402344 2.425781 7.351562 1.96875 7.308594 L 1.257812 7.246094 L 0.574219 7.050781 C -1.96875 6.324219 -3.929688 4.96875 -5.300781 2.984375 L -5.609375 2.539062 L -5.851562 2.058594 C -6.613281 0.53125 -6.996094 -1.191406 -6.996094 -3.113281 L -6.996094 -3.785156 L -6.984375 -3.996094 C -6.933594 -4.878906 -6.742188 -6.585938 -6.410156 -9.117188 L -4.660156 -21.628906 L -3.929688 -26 L -3.90625 -26.117188 C -3.335938 -28.960938 -2.242188 -31.195312 -0.625 -32.8125 L -0.445312 -32.992188 L -0.253906 -33.160156 C 1.542969 -34.730469 3.722656 -35.667969 6.285156 -35.960938 L 7.152344 -28.441406 L 5.796875 -35.890625 C 6.667969 -36.046875 7.765625 -36.128906 9.085938 -36.128906 Z M 12.34375 -20.984375 L 9.085938 -20.984375 C 8.804688 -20.984375 8.578125 -20.980469 8.40625 -20.96875 C 8.363281 -20.964844 8.339844 -20.964844 8.324219 -20.960938 C 8.375 -20.96875 8.433594 -20.976562 8.507812 -20.992188 L 8.265625 -20.945312 L 8.019531 -20.917969 C 8.203125 -20.9375 8.40625 -20.996094 8.636719 -21.089844 C 9.023438 -21.246094 9.382812 -21.46875 9.714844 -21.761719 L 4.730469 -27.460938 L 10.085938 -22.105469 C 10.503906 -22.523438 10.800781 -22.945312 10.984375 -23.367188 C 10.996094 -23.398438 11.007812 -23.421875 11.015625 -23.445312 C 11.015625 -23.449219 11.015625 -23.449219 11.015625 -23.449219 C 11.015625 -23.445312 11.011719 -23.4375 11.011719 -23.429688 C 10.988281 -23.359375 10.96875 -23.265625 10.945312 -23.148438 L 3.519531 -24.632812 L 10.988281 -23.386719 L 10.296875 -19.234375 L 2.828125 -20.480469 L 10.324219 -19.429688 L 8.605469 -7.148438 C 8.320312 -4.992188 8.164062 -3.660156 8.136719 -3.15625 L 0.578125 -3.578125 L 8.148438 -3.578125 L 8.148438 -3.113281 C 8.148438 -3.574219 7.996094 -4.109375 7.695312 -4.714844 L 0.921875 -1.328125 L 7.148438 -5.636719 C 6.738281 -6.230469 6.246094 -6.710938 5.667969 -7.074219 C 5.339844 -7.28125 5.03125 -7.425781 4.734375 -7.511719 L 2.652344 -0.230469 L 3.339844 -7.773438 C 3.726562 -7.738281 4.277344 -7.691406 4.992188 -7.636719 C 5.550781 -7.59375 6.308594 -7.570312 7.269531 -7.570312 L 29.074219 -7.570312 L 29.074219 0 L 21.503906 0 L 21.503906 -3.144531 C 21.503906 -3.238281 21.5 -3.296875 21.5 -3.328125 C 21.507812 -3.21875 21.53125 -3.082031 21.566406 -2.914062 L 21.4375 -3.5 L 21.402344 -4.097656 C 21.394531 -4.183594 21.390625 -4.242188 21.386719 -4.273438 C 21.398438 -4.203125 21.417969 -4.113281 21.453125 -4 C 21.691406 -3.191406 22.160156 -2.4375 22.855469 -1.742188 L 22.476562 -2.121094 L 22.152344 -2.550781 C 22.753906 -1.75 23.484375 -1.15625 24.339844 -0.765625 C 24.722656 -0.589844 25.066406 -0.484375 25.367188 -0.449219 L 25.136719 -0.476562 L 24.910156 -0.519531 C 24.992188 -0.503906 25.058594 -0.492188 25.113281 -0.484375 C 25.105469 -0.488281 25.085938 -0.488281 25.054688 -0.492188 C 24.90625 -0.503906 24.710938 -0.515625 24.460938 -0.523438 C 23.839844 -0.550781 23.011719 -0.5625 21.980469 -0.5625 L 0.0507812 -0.5625 L 1.863281 -9.617188 C 1.894531 -9.789062 1.917969 -9.90625 1.929688 -9.976562 C 1.902344 -9.796875 1.890625 -9.566406 1.890625 -9.289062 L 1.890625 -10.039062 L 2.035156 -10.773438 C 2.136719 -11.273438 2.253906 -11.730469 2.394531 -12.144531 C 2.808594 -13.390625 3.457031 -14.453125 4.335938 -15.335938 C 4.992188 -15.992188 5.726562 -16.519531 6.535156 -16.925781 C 7.679688 -17.496094 8.882812 -17.78125 10.152344 -17.78125 L 23.132812 -17.78125 C 24.773438 -17.78125 25.816406 -17.816406 26.253906 -17.886719 L 26.25 -17.882812 C 26.164062 -17.859375 26.066406 -17.828125 25.960938 -17.785156 C 25.488281 -17.601562 25.042969 -17.308594 24.613281 -16.914062 L 29.765625 -11.363281 L 24.414062 -16.71875 C 24.027344 -16.335938 23.738281 -15.933594 23.546875 -15.515625 C 23.503906 -15.425781 23.472656 -15.347656 23.453125 -15.28125 C 23.449219 -15.273438 23.449219 -15.269531 23.449219 -15.265625 C 23.449219 -15.28125 23.453125 -15.296875 23.460938 -15.316406 L 23.496094 -15.488281 L 23.539062 -15.65625 C 23.652344 -16.078125 23.839844 -17.300781 24.105469 -19.328125 L 24.121094 -19.445312 L 24.484375 -21.691406 L 31.960938 -20.480469 L 24.445312 -21.417969 L 24.734375 -23.726562 C 24.808594 -24.308594 24.859375 -24.753906 24.894531 -25.066406 L 24.917969 -25.269531 L 24.953125 -25.472656 C 24.921875 -25.292969 24.90625 -25.097656 24.90625 -24.890625 L 24.90625 -25.441406 C 24.90625 -25.199219 24.972656 -24.878906 25.109375 -24.480469 C 25.5 -23.339844 26.21875 -22.394531 27.269531 -21.644531 L 26.894531 -21.914062 L 26.554688 -22.222656 C 27.238281 -21.597656 27.960938 -21.183594 28.726562 -20.980469 C 28.839844 -20.949219 28.929688 -20.929688 29.003906 -20.921875 C 28.976562 -20.925781 28.921875 -20.925781 28.84375 -20.929688 L 28.542969 -20.9375 L 28.238281 -20.972656 C 28.171875 -20.980469 27.929688 -20.984375 27.515625 -20.984375 Z M 12.460938 -12.90625 C 12.320312 -12.90625 12.242188 -12.90625 12.226562 -12.90625 C 13.097656 -12.957031 13.976562 -13.203125 14.867188 -13.648438 C 15.523438 -13.976562 16.0625 -14.355469 16.488281 -14.777344 L 11.132812 -20.132812 L 17.90625 -16.746094 C 17.917969 -16.773438 17.929688 -16.792969 17.9375 -16.8125 L 17.933594 -16.800781 L 10.902344 -19.613281 L 18.476562 -19.613281 C 18.476562 -19.042969 18.382812 -18.203125 18.199219 -17.101562 L 10.730469 -18.34375 L 10.730469 -25.917969 L 22.671875 -25.917969 L 22.671875 -18.34375 L 21.730469 -25.859375 C 21.203125 -25.792969 20.679688 -25.652344 20.164062 -25.433594 C 19.355469 -25.097656 18.640625 -24.617188 18.007812 -23.988281 C 17.222656 -23.203125 16.65625 -22.289062 16.308594 -21.246094 C 16.078125 -20.554688 15.964844 -19.855469 15.964844 -19.152344 L 15.964844 -20.214844 L 16.257812 -21.234375 C 16.191406 -21.007812 16.148438 -20.816406 16.128906 -20.664062 C 16.136719 -20.71875 16.144531 -20.8125 16.152344 -20.953125 L 23.710938 -20.480469 L 23.710938 -12.90625 Z M 12.460938 -28.050781 L 31.769531 -28.050781 L 31.265625 -20.007812 C 31.195312 -18.847656 31.042969 -17.867188 30.816406 -17.074219 L 23.535156 -19.152344 L 31.109375 -19.152344 C 31.109375 -18.21875 30.964844 -17.320312 30.675781 -16.457031 C 30.269531 -15.238281 29.617188 -14.179688 28.71875 -13.277344 C 27.339844 -11.902344 25.636719 -11.085938 23.609375 -10.832031 L 23.144531 -10.773438 L 1.792969 -10.773438 L 3.261719 -19.589844 C 3.304688 -19.863281 3.339844 -20.066406 3.355469 -20.203125 L 3.359375 -20.203125 C 3.339844 -20.023438 3.332031 -19.828125 3.332031 -19.613281 L 3.332031 -21.074219 L 3.871094 -22.425781 C 4.027344 -22.8125 4.191406 -23.179688 4.359375 -23.519531 L 4.910156 -24.617188 L 5.78125 -25.488281 C 6.511719 -26.21875 7.285156 -26.789062 8.09375 -27.195312 C 9.058594 -27.675781 10.140625 -27.953125 11.339844 -28.023438 C 11.648438 -28.042969 12.023438 -28.050781 12.460938 -28.050781 Z M 12.460938 -28.050781 "/></g></g></g><g clip-path="url(#700fcfd92b)"><g fill="#0d0d0d" fill-opacity="1"><g transform="translate(151.852146, 48.799859)"><g><path d="M 10.960938 -48.011719 L 16.269531 -48.011719 C 17.8125 -48.011719 19.117188 -47.878906 20.179688 -47.613281 L 18.34375 -40.265625 L 19.246094 -47.785156 C 22.226562 -47.425781 24.535156 -46.25 26.167969 -44.253906 L 26.269531 -44.128906 L 26.363281 -44.003906 C 27.71875 -42.195312 28.398438 -39.949219 28.398438 -37.265625 C 28.398438 -36.703125 28.363281 -35.925781 28.292969 -34.9375 C 28.21875 -33.933594 28.074219 -32.695312 27.851562 -31.230469 L 27.34375 -27.574219 L 19.84375 -28.613281 L 19.84375 -36.183594 L 41.246094 -36.183594 L 40.035156 -27.558594 C 39.644531 -24.78125 39.292969 -22.816406 38.976562 -21.660156 C 38.671875 -20.433594 38.175781 -19.28125 37.488281 -18.199219 C 36.683594 -16.925781 35.667969 -15.875 34.445312 -15.039062 L 34.296875 -14.933594 L 34.140625 -14.839844 C 32.730469 -13.972656 31.078125 -13.410156 29.175781 -13.148438 L 29.039062 -13.132812 L 28.90625 -13.117188 C 28.328125 -13.058594 27.53125 -13.019531 26.511719 -12.996094 C 25.625 -12.976562 24.519531 -12.964844 23.191406 -12.964844 L 18.691406 -12.964844 L 18.691406 -20.535156 L 26.195312 -19.523438 L 25.90625 -17.386719 L 24.746094 -9.207031 L 24.460938 -7.148438 L 16.960938 -8.191406 L 16.960938 -15.765625 L 38.265625 -15.765625 L 37.160156 -7.222656 C 36.996094 -5.9375 36.839844 -4.847656 36.6875 -3.945312 C 36.511719 -2.886719 36.332031 -2.023438 36.148438 -1.355469 L 28.84375 -3.347656 L 36.207031 -1.578125 C 35.644531 0.765625 34.609375 2.695312 33.101562 4.199219 C 31.558594 5.746094 29.46875 6.753906 26.828125 7.222656 L 26.699219 7.246094 L 26.570312 7.265625 C 25.40625 7.429688 23.433594 7.515625 20.652344 7.515625 L 15.460938 7.515625 C 12.601562 7.515625 10.589844 7.429688 9.429688 7.265625 L 9.273438 7.242188 L 9.121094 7.214844 C 6.035156 6.644531 3.726562 5.253906 2.195312 3.039062 L 1.96875 2.710938 L 1.773438 2.355469 C 0.929688 0.804688 0.503906 -0.960938 0.503906 -2.941406 L 0.503906 -4.429688 L 0.589844 -4.988281 C 0.707031 -5.789062 0.945312 -7.265625 1.296875 -9.414062 L 8.769531 -8.191406 L 1.269531 -9.234375 L 1.558594 -11.308594 L 2.714844 -19.464844 L 2.996094 -21.550781 L 10.5 -20.535156 L 10.5 -12.964844 L -6.683594 -12.964844 L -5.15625 -21.824219 C -4.96875 -22.894531 -4.824219 -23.78125 -4.714844 -24.488281 C -4.617188 -25.132812 -4.550781 -25.574219 -4.527344 -25.816406 L -4.46875 -26.320312 L -4.347656 -26.816406 C -3.570312 -29.914062 -2.15625 -32.25 -0.101562 -33.820312 L 0.238281 -34.078125 L 0.605469 -34.296875 C 2.105469 -35.199219 3.871094 -35.773438 5.90625 -36.015625 L 6.808594 -28.5 L 5.320312 -35.921875 C 6.195312 -36.097656 7.183594 -36.183594 8.277344 -36.183594 L 11.652344 -36.183594 L 11.652344 -28.613281 L 4.152344 -29.65625 L 5.308594 -37.960938 C 5.304688 -37.9375 5.300781 -37.925781 5.300781 -37.933594 C 5.296875 -37.855469 5.292969 -37.757812 5.292969 -37.640625 L 5.292969 -38.015625 C 5.292969 -37.773438 5.316406 -37.5 5.367188 -37.203125 C 5.527344 -36.25 5.886719 -35.351562 6.449219 -34.507812 L 5.886719 -35.351562 L 5.566406 -36.3125 C 5.765625 -35.710938 6.039062 -35.164062 6.386719 -34.683594 C 6.898438 -33.964844 7.511719 -33.390625 8.21875 -32.964844 L 6.757812 -33.84375 L 5.8125 -35.257812 C 6.171875 -34.722656 6.5625 -34.285156 6.980469 -33.949219 C 6.851562 -34.054688 6.664062 -34.199219 6.417969 -34.382812 L -11.753906 -48.011719 Z M 10.960938 -32.867188 L 10.960938 -40.441406 L 15.503906 -46.496094 C 15.875 -46.21875 16.1875 -45.980469 16.441406 -45.777344 C 17.246094 -45.132812 17.902344 -44.425781 18.414062 -43.660156 L 12.113281 -39.457031 L 16.011719 -45.953125 C 17.101562 -45.296875 18.003906 -44.472656 18.707031 -43.484375 C 19.246094 -42.734375 19.652344 -41.9375 19.933594 -41.101562 L 12.75 -38.707031 L 19.050781 -42.910156 C 19.972656 -41.523438 20.4375 -39.890625 20.4375 -38.015625 L 20.4375 -37.640625 C 20.4375 -37.15625 20.394531 -36.566406 20.308594 -35.878906 L 18.246094 -21.042969 L 8.277344 -21.042969 C 8.179688 -21.042969 8.105469 -21.039062 8.054688 -21.035156 C 8.109375 -21.039062 8.1875 -21.050781 8.292969 -21.074219 L 8.003906 -21.015625 L 7.710938 -20.980469 C 7.664062 -20.972656 7.628906 -20.96875 7.605469 -20.964844 C 7.625 -20.96875 7.648438 -20.976562 7.683594 -20.984375 C 7.90625 -21.050781 8.140625 -21.160156 8.394531 -21.3125 L 4.5 -27.804688 L 9.097656 -21.789062 C 9.648438 -22.210938 10.054688 -22.671875 10.324219 -23.175781 C 10.363281 -23.25 10.390625 -23.308594 10.40625 -23.347656 C 10.386719 -23.300781 10.367188 -23.234375 10.347656 -23.140625 L 3 -24.980469 L 10.527344 -24.144531 C 10.476562 -23.691406 10.382812 -23.039062 10.253906 -22.183594 C 10.128906 -21.386719 9.96875 -20.410156 9.769531 -19.25 L 2.308594 -20.535156 L 2.308594 -28.109375 L 19.164062 -28.109375 L 17.707031 -17.339844 L 16.558594 -9.226562 L 16.257812 -7.058594 L 16.242188 -6.96875 C 15.902344 -4.886719 15.675781 -3.476562 15.566406 -2.742188 L 8.078125 -3.863281 L 15.648438 -3.863281 L 15.648438 -2.941406 C 15.648438 -3.113281 15.625 -3.3125 15.578125 -3.539062 C 15.484375 -3.996094 15.3125 -4.449219 15.070312 -4.894531 L 8.421875 -1.269531 L 14.648438 -5.578125 C 14.085938 -6.394531 13.398438 -7 12.585938 -7.40625 C 12.296875 -7.554688 12.058594 -7.644531 11.878906 -7.675781 L 10.5 -0.230469 L 11.570312 -7.726562 C 12.023438 -7.660156 13.320312 -7.628906 15.460938 -7.628906 L 20.652344 -7.628906 C 22.714844 -7.628906 23.976562 -7.660156 24.425781 -7.726562 L 25.5 -0.230469 L 24.167969 -7.683594 C 24.210938 -7.691406 24.238281 -7.699219 24.246094 -7.699219 C 24.175781 -7.679688 24.09375 -7.652344 23.996094 -7.609375 C 23.433594 -7.378906 22.898438 -7.011719 22.394531 -6.507812 C 22.066406 -6.179688 21.808594 -5.832031 21.625 -5.464844 C 21.546875 -5.3125 21.5 -5.195312 21.480469 -5.113281 L 21.507812 -5.226562 L 21.539062 -5.339844 C 21.585938 -5.515625 21.65625 -5.882812 21.75 -6.4375 C 21.871094 -7.152344 22 -8.0625 22.140625 -9.160156 L 29.652344 -8.191406 L 29.652344 -0.621094 L 8.265625 -0.621094 L 9.75 -11.332031 L 10.898438 -19.417969 L 12.074219 -28.109375 L 23.191406 -28.109375 C 24.402344 -28.109375 25.390625 -28.117188 26.160156 -28.136719 C 26.792969 -28.152344 27.207031 -28.167969 27.398438 -28.1875 L 28.152344 -20.652344 L 27.128906 -28.15625 C 27.148438 -28.15625 27.160156 -28.160156 27.160156 -28.160156 C 27.121094 -28.152344 27.074219 -28.136719 27.019531 -28.121094 C 26.757812 -28.039062 26.488281 -27.910156 26.203125 -27.734375 L 30.171875 -21.285156 L 25.894531 -27.535156 C 25.402344 -27.199219 25.003906 -26.789062 24.699219 -26.308594 C 24.511719 -26.015625 24.402344 -25.792969 24.367188 -25.644531 C 24.511719 -26.183594 24.738281 -27.523438 25.039062 -29.667969 L 32.535156 -28.613281 L 32.535156 -21.042969 L 11.152344 -21.042969 L 12.878906 -33.496094 C 13.039062 -34.570312 13.144531 -35.410156 13.1875 -36.019531 C 13.230469 -36.644531 13.253906 -37.0625 13.253906 -37.265625 C 13.253906 -37.175781 13.277344 -37.027344 13.328125 -36.820312 C 13.484375 -36.160156 13.789062 -35.527344 14.25 -34.914062 L 20.304688 -39.457031 L 14.445312 -34.664062 C 15.078125 -33.890625 15.820312 -33.328125 16.671875 -32.976562 C 16.984375 -32.847656 17.238281 -32.773438 17.441406 -32.75 L 16.96875 -32.804688 L 16.507812 -32.921875 C 16.675781 -32.878906 16.789062 -32.855469 16.851562 -32.851562 C 16.714844 -32.863281 16.519531 -32.867188 16.269531 -32.867188 Z M 10.960938 -32.867188 "/></g></g></g></g><g clip-path="url(#7037aee956)"><g fill="#0d0d0d" fill-opacity="1"><g transform="translate(184.098768, 48.799859)"><g><path d="M 1.617188 -36.242188 L 6.578125 -36.242188 C 8.5 -36.242188 9.996094 -36.136719 11.0625 -35.921875 L 9.578125 -28.5 L 10.699219 -35.988281 C 13.464844 -35.570312 15.601562 -34.394531 17.109375 -32.453125 L 11.132812 -27.804688 L 16.488281 -33.160156 C 18.273438 -31.375 19.167969 -28.992188 19.167969 -26.015625 L 19.167969 -25.324219 C 19.167969 -24.796875 19.101562 -23.976562 18.96875 -22.871094 C 18.867188 -22.007812 18.714844 -20.871094 18.515625 -19.464844 L 16.789062 -7.085938 L 9.289062 -8.132812 L 9.289062 -15.707031 L 19.789062 -15.707031 C 19.976562 -15.707031 20.101562 -15.707031 20.160156 -15.710938 C 19.789062 -15.683594 19.367188 -15.589844 18.890625 -15.433594 L 19.339844 -15.582031 L 19.800781 -15.675781 C 18.496094 -15.414062 17.359375 -14.800781 16.394531 -13.835938 L 21.75 -8.480469 L 15.449219 -12.679688 C 15 -12.007812 14.707031 -11.253906 14.566406 -10.417969 L 14.664062 -11.003906 L 14.851562 -11.566406 C 14.808594 -11.433594 14.777344 -11.328125 14.761719 -11.246094 C 14.769531 -11.289062 14.78125 -11.359375 14.796875 -11.457031 L 22.269531 -10.210938 L 14.769531 -11.257812 L 16.210938 -21.585938 L 18.289062 -36.242188 L 27.429688 -36.242188 C 28.382812 -36.242188 29.171875 -36.207031 29.796875 -36.140625 L 28.960938 -28.613281 L 29.203125 -36.179688 C 32.023438 -36.089844 34.324219 -35.355469 36.113281 -33.980469 L 31.496094 -27.980469 L 35.394531 -34.472656 C 37.03125 -33.488281 38.246094 -32.125 39.039062 -30.375 C 39.636719 -29.0625 39.933594 -27.628906 39.933594 -26.074219 L 32.363281 -26.074219 L 39.136719 -29.460938 C 39.707031 -28.320312 39.992188 -26.996094 39.992188 -25.5 C 39.992188 -24.386719 39.796875 -22.390625 39.40625 -19.515625 L 37.671875 -7.085938 L 36.515625 1.0625 L 35.996094 4.746094 L 28.5 3.691406 L 36.023438 4.527344 C 35.894531 5.703125 35.757812 6.703125 35.621094 7.53125 C 35.492188 8.304688 35.382812 8.925781 35.289062 9.386719 C 34.804688 11.640625 33.972656 13.542969 32.78125 15.097656 L 26.765625 10.5 L 32.890625 14.953125 C 31.539062 16.808594 29.585938 18.085938 27.027344 18.785156 C 26.148438 19.039062 24.941406 19.207031 23.40625 19.296875 C 22.277344 19.363281 20.859375 19.398438 19.152344 19.398438 L -11.160156 19.398438 L -8.460938 7.191406 C -8.246094 6.230469 -8.054688 5.472656 -7.886719 4.917969 L -7.84375 4.777344 L -7.796875 4.640625 C -6.746094 1.574219 -5.097656 -0.648438 -2.851562 -2.019531 C -1.148438 -3.085938 0.832031 -3.664062 3.089844 -3.757812 L 3.402344 3.808594 L 1.761719 -3.585938 C 2.648438 -3.78125 3.6875 -3.878906 4.875 -3.878906 L 17.074219 -3.878906 C 17.457031 -3.878906 17.722656 -3.882812 17.871094 -3.894531 C 18.335938 -3.921875 18.726562 -3.9375 19.039062 -3.9375 L 19.039062 3.632812 L 17.449219 -3.769531 C 17.152344 -3.707031 16.824219 -3.589844 16.460938 -3.417969 C 15.234375 -2.84375 14.257812 -1.945312 13.523438 -0.722656 L 14.003906 -1.523438 L 14.664062 -2.179688 C 14.136719 -1.652344 13.71875 -1.046875 13.414062 -0.363281 C 13.152344 0.226562 12.996094 0.828125 12.9375 1.449219 L 13.019531 0.574219 L 13.296875 -0.261719 C 13.238281 -0.0898438 13.195312 0.0585938 13.167969 0.191406 L 13.164062 0.207031 C 13.167969 0.1875 13.171875 0.160156 13.179688 0.128906 C 13.214844 -0.09375 13.253906 -0.402344 13.296875 -0.808594 L 20.824219 0 L 20.824219 7.570312 L 7.558594 7.570312 C 5.007812 7.570312 3.148438 7.488281 1.988281 7.324219 L 1.753906 7.289062 L 1.523438 7.242188 C 0.164062 6.960938 -1.046875 6.511719 -2.121094 5.890625 C -3.679688 4.988281 -4.886719 3.78125 -5.734375 2.269531 C -6.613281 0.660156 -7.054688 -1.15625 -7.054688 -3.171875 C -7.054688 -4.03125 -6.96875 -5.042969 -6.804688 -6.207031 C -6.78125 -6.402344 -6.742188 -6.738281 -6.6875 -7.214844 L -6.476562 -9.082031 L -4.730469 -21.582031 L -4.089844 -25.933594 L -4 -26.296875 C -4.074219 -26 -4.109375 -25.640625 -4.109375 -25.210938 L -4.109375 -25.671875 C -4.109375 -25.503906 -4.09375 -25.3125 -4.0625 -25.089844 C -3.96875 -24.414062 -3.753906 -23.75 -3.425781 -23.09375 L -3.796875 -23.835938 L -4 -24.640625 C -3.878906 -24.152344 -3.703125 -23.699219 -3.476562 -23.292969 C -3.089844 -22.597656 -2.601562 -22.015625 -2.019531 -21.546875 L -2.9375 -22.28125 L -3.589844 -23.257812 C -3.535156 -23.179688 -3.492188 -23.117188 -3.453125 -23.070312 C -3.46875 -23.085938 -3.488281 -23.113281 -3.523438 -23.15625 C -3.453125 -23.066406 -3.386719 -22.992188 -3.328125 -22.933594 L -3.324219 -22.929688 C -3.335938 -22.941406 -3.351562 -22.957031 -3.371094 -22.972656 L -18.539062 -36.242188 Z M 1.617188 -21.097656 L 1.617188 -28.671875 L 6.601562 -34.371094 C 7.226562 -33.824219 7.757812 -33.28125 8.195312 -32.746094 C 8.527344 -32.34375 8.796875 -31.980469 9.011719 -31.660156 L 2.710938 -27.460938 L 7.441406 -33.371094 C 8.410156 -32.597656 9.183594 -31.6875 9.761719 -30.648438 C 10.183594 -29.890625 10.492188 -29.113281 10.691406 -28.316406 L 3.347656 -26.480469 L 10.117188 -29.867188 C 10.726562 -28.644531 11.035156 -27.246094 11.035156 -25.671875 L 11.035156 -25.210938 C 11.035156 -24.394531 10.917969 -23.535156 10.691406 -22.625 L 3.347656 -24.460938 L 10.835938 -23.359375 L 10.269531 -19.492188 L 8.539062 -7.085938 L 1.039062 -8.132812 L 8.5625 -7.285156 L 8.359375 -5.476562 C 8.296875 -4.953125 8.242188 -4.484375 8.1875 -4.0625 C 8.125 -3.609375 8.089844 -3.3125 8.089844 -3.171875 C 8.089844 -3.308594 8.070312 -3.476562 8.03125 -3.675781 C 7.9375 -4.140625 7.75 -4.632812 7.464844 -5.15625 C 6.960938 -6.050781 6.296875 -6.738281 5.46875 -7.214844 C 5.125 -7.414062 4.832031 -7.539062 4.589844 -7.589844 L 3.058594 -0.171875 L 4.128906 -7.667969 C 4.582031 -7.605469 5.722656 -7.570312 7.558594 -7.570312 L 29.253906 -7.570312 L 28.355469 0.808594 C 28.179688 2.425781 27.949219 3.664062 27.664062 4.527344 L 20.480469 2.132812 L 28.019531 2.820312 C 27.925781 3.863281 27.671875 4.851562 27.253906 5.785156 C 26.796875 6.816406 26.167969 7.730469 25.371094 8.527344 L 20.019531 3.171875 L 26.511719 7.070312 C 25.269531 9.140625 23.304688 10.464844 20.625 11.039062 L 19.839844 11.207031 L 19.039062 11.207031 C 19.0625 11.207031 19.082031 11.207031 19.097656 11.207031 C 19.089844 11.207031 19.078125 11.207031 19.0625 11.207031 C 19 11.210938 18.917969 11.214844 18.816406 11.21875 C 18.351562 11.25 17.773438 11.265625 17.074219 11.265625 L 4.875 11.265625 C 4.753906 11.265625 4.671875 11.265625 4.621094 11.269531 C 4.730469 11.261719 4.871094 11.238281 5.046875 11.199219 L 4.390625 11.34375 L 3.71875 11.371094 C 3.832031 11.367188 3.972656 11.34375 4.140625 11.296875 C 4.46875 11.207031 4.769531 11.074219 5.042969 10.902344 C 5.671875 10.519531 6.152344 10.070312 6.488281 9.558594 C 6.539062 9.480469 6.574219 9.414062 6.597656 9.367188 C 6.582031 9.40625 6.558594 9.46875 6.527344 9.550781 L -0.632812 7.09375 L 6.617188 9.273438 C 6.554688 9.488281 6.457031 9.882812 6.328125 10.460938 L 5.664062 13.460938 L -1.730469 11.824219 L -1.730469 4.253906 L 19.152344 4.253906 C 20.5625 4.253906 21.683594 4.230469 22.515625 4.179688 C 22.839844 4.160156 23.09375 4.140625 23.277344 4.117188 C 23.296875 4.113281 23.316406 4.113281 23.328125 4.109375 C 23.328125 4.109375 23.320312 4.113281 23.308594 4.113281 C 23.207031 4.132812 23.117188 4.152344 23.042969 4.175781 C 22.855469 4.226562 22.632812 4.324219 22.371094 4.472656 C 21.707031 4.847656 21.132812 5.375 20.644531 6.046875 L 20.695312 5.972656 L 20.753906 5.898438 C 20.613281 6.082031 20.507812 6.253906 20.441406 6.414062 C 20.433594 6.429688 20.429688 6.441406 20.425781 6.453125 L 20.425781 6.449219 C 20.4375 6.417969 20.441406 6.40625 20.4375 6.417969 C 20.5 6.113281 20.582031 5.65625 20.683594 5.042969 C 20.777344 4.488281 20.871094 3.757812 20.972656 2.855469 L 20.984375 2.746094 L 21.519531 -1.0625 L 22.671875 -9.179688 L 24.398438 -21.558594 C 24.699219 -23.757812 24.847656 -25.070312 24.847656 -25.5 C 24.847656 -25.398438 24.855469 -25.273438 24.871094 -25.121094 C 24.953125 -24.292969 25.195312 -23.480469 25.589844 -22.6875 L 24.792969 -24.289062 L 24.792969 -26.074219 C 24.792969 -25.441406 24.945312 -24.789062 25.253906 -24.109375 C 25.757812 -22.996094 26.542969 -22.121094 27.601562 -21.484375 L 27.226562 -21.710938 L 26.882812 -21.976562 C 27.464844 -21.527344 28.054688 -21.230469 28.652344 -21.078125 C 28.742188 -21.058594 28.8125 -21.042969 28.867188 -21.035156 C 28.835938 -21.039062 28.785156 -21.042969 28.714844 -21.046875 L 28.417969 -21.054688 L 28.125 -21.085938 C 28.054688 -21.09375 27.824219 -21.097656 27.429688 -21.097656 L 24.863281 -21.097656 L 24.863281 -28.671875 L 32.359375 -27.609375 L 31.210938 -19.488281 L 29.753906 -9.066406 L 29.738281 -8.964844 C 29.675781 -8.601562 29.613281 -8.265625 29.542969 -7.960938 C 29.449219 -7.535156 29.339844 -7.140625 29.21875 -6.777344 L 22.035156 -9.171875 L 29.507812 -7.925781 C 29.289062 -6.628906 28.804688 -5.414062 28.050781 -4.28125 L 27.632812 -3.65625 L 27.101562 -3.125 C 25.90625 -1.929688 24.464844 -1.164062 22.773438 -0.824219 L 21.285156 -8.25 L 23.679688 -1.066406 C 22.671875 -0.730469 21.375 -0.5625 19.789062 -0.5625 L 0.585938 -0.5625 L 3.523438 -21.609375 C 3.707031 -22.894531 3.84375 -23.914062 3.933594 -24.664062 C 3.972656 -25 4 -25.265625 4.019531 -25.460938 C 4.023438 -25.519531 4.027344 -25.558594 4.03125 -25.582031 C 4.027344 -25.515625 4.023438 -25.429688 4.023438 -25.324219 L 4.023438 -26.015625 C 4.023438 -25.820312 4.066406 -25.558594 4.148438 -25.234375 C 4.414062 -24.199219 4.960938 -23.273438 5.78125 -22.453125 L 5.445312 -22.785156 L 5.15625 -23.15625 C 5.800781 -22.332031 6.570312 -21.71875 7.46875 -21.320312 C 7.832031 -21.15625 8.160156 -21.054688 8.453125 -21.011719 L 8.269531 -21.035156 L 8.089844 -21.074219 C 8.164062 -21.058594 8.214844 -21.050781 8.238281 -21.046875 C 8.171875 -21.054688 8.078125 -21.0625 7.957031 -21.070312 C 7.601562 -21.089844 7.140625 -21.097656 6.578125 -21.097656 Z M 1.617188 -21.097656 "/></g></g></g></g><g fill="#ffffff" fill-opacity="1"><g transform="translate(7.924945, 48.799859)"><g><path d="M 2.828125 -20.484375 C 3.171875 -22.941406 3.457031 -24.570312 3.6875 -25.375 C 3.957031 -26.457031 4.398438 -27.25 5.015625 -27.75 C 5.515625 -28.132812 6.285156 -28.382812 7.328125 -28.5 C 7.742188 -28.570312 8.304688 -28.609375 9.015625 -28.609375 C 9.734375 -28.609375 10.613281 -28.609375 11.65625 -28.609375 L 33.0625 -28.609375 C 32.707031 -25.992188 32.378906 -24.242188 32.078125 -23.359375 C 31.734375 -22.285156 31.15625 -21.535156 30.34375 -21.109375 C 30.113281 -20.992188 29.851562 -20.90625 29.5625 -20.84375 C 29.269531 -20.789062 28.914062 -20.726562 28.5 -20.65625 C 27.800781 -20.539062 26.507812 -20.484375 24.625 -20.484375 L 13.328125 -20.484375 C 12.941406 -20.484375 12.601562 -20.484375 12.3125 -20.484375 C 12.03125 -20.484375 11.828125 -20.460938 11.703125 -20.421875 C 11.441406 -20.421875 11.253906 -20.328125 11.140625 -20.140625 C 11.054688 -20.054688 10.976562 -19.878906 10.90625 -19.609375 C 10.90625 -19.460938 10.847656 -19.0625 10.734375 -18.40625 L 23.421875 -18.40625 C 24.578125 -18.40625 25.53125 -18.40625 26.28125 -18.40625 C 27.03125 -18.40625 27.578125 -18.363281 27.921875 -18.28125 C 29.148438 -18.164062 29.976562 -17.859375 30.40625 -17.359375 C 30.789062 -16.941406 30.984375 -16.191406 30.984375 -15.109375 L 30.984375 -14.765625 C 30.984375 -14.421875 30.941406 -13.875 30.859375 -13.125 C 30.785156 -12.375 30.671875 -11.421875 30.515625 -10.265625 L 30.234375 -8.140625 C 30.078125 -6.867188 29.910156 -5.816406 29.734375 -4.984375 C 29.566406 -4.160156 29.425781 -3.535156 29.3125 -3.109375 C 29.070312 -2.304688 28.800781 -1.710938 28.5 -1.328125 C 28.039062 -0.867188 27.382812 -0.519531 26.53125 -0.28125 C 26.144531 -0.25 25.472656 -0.203125 24.515625 -0.140625 C 23.554688 -0.0859375 22.347656 -0.0625 20.890625 -0.0625 L 8.1875 -0.0625 C 6.6875 -0.0625 5.472656 -0.0859375 4.546875 -0.140625 C 3.628906 -0.203125 2.957031 -0.25 2.53125 -0.28125 C 1.800781 -0.519531 1.285156 -0.832031 0.984375 -1.21875 C 0.710938 -1.632812 0.578125 -2.285156 0.578125 -3.171875 C 0.578125 -3.941406 0.75 -5.597656 1.09375 -8.140625 L 20.078125 -8.140625 C 20.421875 -8.140625 20.707031 -8.144531 20.9375 -8.15625 C 21.164062 -8.175781 21.320312 -8.1875 21.40625 -8.1875 C 21.59375 -8.226562 21.765625 -8.328125 21.921875 -8.484375 C 22.078125 -8.710938 22.15625 -8.941406 22.15625 -9.171875 C 22.226562 -9.398438 22.285156 -9.765625 22.328125 -10.265625 L 8.1875 -10.265625 C 7.414062 -10.265625 6.742188 -10.273438 6.171875 -10.296875 C 5.597656 -10.316406 5.132812 -10.347656 4.78125 -10.390625 C 3.707031 -10.503906 2.921875 -10.769531 2.421875 -11.1875 C 2.035156 -11.65625 1.84375 -12.3125 1.84375 -13.15625 L 1.84375 -13.84375 C 1.925781 -14.226562 2.023438 -14.796875 2.140625 -15.546875 C 2.253906 -16.296875 2.382812 -17.25 2.53125 -18.40625 Z M 2.828125 -20.484375 "/></g></g></g><g fill="#ffffff" fill-opacity="1"><g transform="translate(40.690741, 48.799859)"><g><path d="M 2.828125 -20.484375 C 3.054688 -22.210938 3.226562 -23.34375 3.34375 -23.875 C 3.6875 -25.644531 4.148438 -26.820312 4.734375 -27.40625 C 5.265625 -27.976562 6.09375 -28.320312 7.21875 -28.4375 C 7.632812 -28.519531 8.226562 -28.5625 9 -28.5625 C 9.769531 -28.5625 10.734375 -28.5625 11.890625 -28.5625 L 25.15625 -28.5625 C 26.570312 -28.5625 27.734375 -28.539062 28.640625 -28.5 C 29.546875 -28.457031 30.191406 -28.378906 30.578125 -28.265625 C 31.265625 -28.148438 31.765625 -27.84375 32.078125 -27.34375 C 32.347656 -26.957031 32.484375 -26.320312 32.484375 -25.4375 L 32.484375 -24.859375 C 32.484375 -24.128906 32.304688 -22.671875 31.953125 -20.484375 L 30.234375 -8.140625 C 29.960938 -6.097656 29.726562 -4.691406 29.53125 -3.921875 C 29.300781 -2.847656 29.015625 -2.0625 28.671875 -1.5625 C 28.242188 -0.90625 27.472656 -0.460938 26.359375 -0.234375 C 25.972656 -0.191406 25.359375 -0.140625 24.515625 -0.078125 C 23.671875 -0.0234375 22.59375 0 21.28125 0 L 7.734375 0 C 6.503906 0 5.484375 -0.0234375 4.671875 -0.078125 C 3.867188 -0.140625 3.253906 -0.191406 2.828125 -0.234375 C 1.984375 -0.390625 1.367188 -0.71875 0.984375 -1.21875 C 0.867188 -1.445312 0.769531 -1.722656 0.6875 -2.046875 C 0.613281 -2.367188 0.578125 -2.722656 0.578125 -3.109375 L 0.578125 -3.8125 C 0.648438 -4.582031 0.820312 -6.023438 1.09375 -8.140625 C 1.207031 -8.898438 1.347656 -9.828125 1.515625 -10.921875 C 1.691406 -12.023438 1.878906 -13.285156 2.078125 -14.703125 C 2.304688 -16.171875 2.476562 -17.375 2.59375 -18.3125 C 2.707031 -19.257812 2.785156 -19.984375 2.828125 -20.484375 Z M 13.84375 -20.484375 C 13.382812 -20.484375 13 -20.484375 12.6875 -20.484375 C 12.382812 -20.484375 12.15625 -20.460938 12 -20.421875 C 11.613281 -20.347656 11.34375 -20.234375 11.1875 -20.078125 C 11.070312 -19.960938 10.957031 -19.632812 10.84375 -19.09375 C 10.84375 -19.050781 10.832031 -18.960938 10.8125 -18.828125 C 10.789062 -18.703125 10.765625 -18.539062 10.734375 -18.34375 L 9.28125 -8.140625 L 21.28125 -8.140625 C 21.550781 -8.210938 21.726562 -8.285156 21.8125 -8.359375 C 21.957031 -8.515625 22.03125 -8.691406 22.03125 -8.890625 C 22.113281 -9.003906 22.171875 -9.164062 22.203125 -9.375 C 22.242188 -9.582031 22.285156 -9.859375 22.328125 -10.203125 L 23.765625 -20.484375 Z M 13.84375 -20.484375 "/></g></g></g><g fill="#ffffff" fill-opacity="1"><g transform="translate(73.687272, 48.799859)"><g><path d="M 11.421875 -28.5625 L 33.109375 -28.5625 C 32.953125 -27.40625 32.804688 -26.441406 32.671875 -25.671875 C 32.546875 -24.898438 32.425781 -24.300781 32.3125 -23.875 C 32.070312 -22.757812 31.6875 -21.972656 31.15625 -21.515625 C 30.539062 -20.972656 29.539062 -20.644531 28.15625 -20.53125 C 27.769531 -20.53125 27.21875 -20.519531 26.5 -20.5 C 25.789062 -20.488281 24.878906 -20.460938 23.765625 -20.421875 L 13.4375 -20.421875 C 13.28125 -20.421875 13.125 -20.429688 12.96875 -20.453125 C 12.820312 -20.472656 12.691406 -20.484375 12.578125 -20.484375 C 12.234375 -20.484375 11.984375 -20.441406 11.828125 -20.359375 C 11.597656 -20.359375 11.425781 -20.300781 11.3125 -20.1875 C 11.195312 -20.070312 11.078125 -19.84375 10.953125 -19.5 C 10.953125 -19.300781 10.894531 -18.914062 10.78125 -18.34375 L 9.34375 -8.078125 L 30.234375 -8.078125 C 30.078125 -6.878906 29.929688 -5.875 29.796875 -5.0625 C 29.660156 -4.257812 29.535156 -3.648438 29.421875 -3.234375 C 29.191406 -2.148438 28.785156 -1.378906 28.203125 -0.921875 C 27.671875 -0.492188 26.828125 -0.222656 25.671875 -0.109375 C 25.285156 -0.078125 24.707031 -0.0507812 23.9375 -0.03125 C 23.164062 -0.0078125 22.1875 0 21 0 L 8.078125 0 C 6.691406 0 5.554688 -0.0234375 4.671875 -0.078125 C 3.785156 -0.140625 3.132812 -0.191406 2.71875 -0.234375 C 1.90625 -0.390625 1.328125 -0.71875 0.984375 -1.21875 C 0.867188 -1.445312 0.769531 -1.722656 0.6875 -2.046875 C 0.613281 -2.367188 0.578125 -2.722656 0.578125 -3.109375 L 0.578125 -3.515625 C 0.617188 -3.941406 0.6875 -4.53125 0.78125 -5.28125 C 0.875 -6.03125 1 -6.960938 1.15625 -8.078125 C 1.269531 -8.765625 1.398438 -9.617188 1.546875 -10.640625 C 1.703125 -11.660156 1.859375 -12.863281 2.015625 -14.25 C 2.210938 -15.632812 2.382812 -16.835938 2.53125 -17.859375 C 2.6875 -18.878906 2.804688 -19.734375 2.890625 -20.421875 C 3.078125 -21.578125 3.226562 -22.53125 3.34375 -23.28125 C 3.457031 -24.03125 3.535156 -24.597656 3.578125 -24.984375 C 3.878906 -26.210938 4.28125 -27.054688 4.78125 -27.515625 C 5.320312 -27.972656 6.09375 -28.257812 7.09375 -28.375 C 7.90625 -28.5 9.347656 -28.5625 11.421875 -28.5625 Z M 11.421875 -28.5625 "/></g></g></g><g fill="#ffffff" fill-opacity="1"><g transform="translate(106.453068, 48.799859)"><g><path d="M 14.421875 -40.375 L 13.09375 -30.6875 L 4.90625 -30.6875 L 5.078125 -32.25 C 5.265625 -33.363281 5.414062 -34.273438 5.53125 -34.984375 C 5.65625 -35.703125 5.753906 -36.234375 5.828125 -36.578125 C 6.054688 -37.765625 6.382812 -38.585938 6.8125 -39.046875 C 7.34375 -39.671875 8.109375 -40.054688 9.109375 -40.203125 C 9.992188 -40.316406 11.765625 -40.375 14.421875 -40.375 Z M 4.609375 -28.609375 L 12.8125 -28.609375 L 9.921875 -8.078125 C 9.765625 -7.003906 9.628906 -6.097656 9.515625 -5.359375 C 9.398438 -4.628906 9.285156 -4.070312 9.171875 -3.6875 C 8.941406 -2.5 8.554688 -1.632812 8.015625 -1.09375 C 7.398438 -0.550781 6.476562 -0.222656 5.25 -0.109375 C 4.863281 -0.078125 4.3125 -0.0507812 3.59375 -0.03125 C 2.882812 -0.0078125 2.015625 0 0.984375 0 L -1.734375 0 C -1.390625 -0.3125 -1.109375 -0.5625 -0.890625 -0.75 C -0.679688 -0.9375 -0.519531 -1.09375 -0.40625 -1.21875 C 0.09375 -1.71875 0.398438 -2.039062 0.515625 -2.1875 C 0.710938 -2.457031 0.847656 -2.75 0.921875 -3.0625 C 1.035156 -3.25 1.113281 -3.632812 1.15625 -4.21875 Z M 4.609375 -28.609375 "/></g></g></g><g fill="#ffffff" fill-opacity="1"><g transform="translate(119.720899, 48.799859)"><g><path d="M 12.34375 -28.5625 L 24.921875 -28.5625 C 25.960938 -28.5625 26.828125 -28.5625 27.515625 -28.5625 C 28.210938 -28.5625 28.734375 -28.539062 29.078125 -28.5 C 30.347656 -28.457031 31.210938 -28.226562 31.671875 -27.8125 C 32.210938 -27.425781 32.484375 -26.632812 32.484375 -25.4375 C 32.484375 -25.28125 32.484375 -25.097656 32.484375 -24.890625 C 32.484375 -24.679688 32.460938 -24.460938 32.421875 -24.234375 C 32.378906 -23.878906 32.316406 -23.394531 32.234375 -22.78125 C 32.160156 -22.164062 32.066406 -21.398438 31.953125 -20.484375 L 31.609375 -18.34375 C 31.304688 -16 31.054688 -14.460938 30.859375 -13.734375 C 30.628906 -12.648438 30.265625 -11.859375 29.765625 -11.359375 C 29.222656 -10.859375 28.394531 -10.535156 27.28125 -10.390625 C 26.550781 -10.265625 25.164062 -10.203125 23.125 -10.203125 L 10.15625 -10.203125 C 10 -10.203125 9.84375 -10.128906 9.6875 -9.984375 C 9.613281 -9.898438 9.535156 -9.664062 9.453125 -9.28125 C 9.453125 -9.09375 9.394531 -8.710938 9.28125 -8.140625 L 21.984375 -8.140625 C 24.242188 -8.140625 25.6875 -8.078125 26.3125 -7.953125 C 27.226562 -7.835938 27.859375 -7.550781 28.203125 -7.09375 C 28.628906 -6.675781 28.878906 -5.832031 28.953125 -4.5625 C 29.035156 -4.207031 29.078125 -3.734375 29.078125 -3.140625 C 29.078125 -2.546875 29.078125 -1.828125 29.078125 -0.984375 L 29.078125 0 L 7.265625 0 C 6.109375 0 5.15625 -0.0234375 4.40625 -0.078125 C 3.65625 -0.140625 3.070312 -0.191406 2.65625 -0.234375 C 1.84375 -0.460938 1.265625 -0.828125 0.921875 -1.328125 C 0.691406 -1.785156 0.578125 -2.378906 0.578125 -3.109375 L 0.578125 -3.578125 C 0.617188 -4.265625 0.789062 -5.785156 1.09375 -8.140625 L 2.828125 -20.484375 L 3.515625 -24.625 C 3.785156 -25.976562 4.191406 -26.921875 4.734375 -27.453125 C 5.347656 -27.992188 6.15625 -28.320312 7.15625 -28.4375 C 7.570312 -28.519531 8.210938 -28.5625 9.078125 -28.5625 C 9.953125 -28.5625 11.039062 -28.5625 12.34375 -28.5625 Z M 12.453125 -20.484375 C 11.878906 -20.484375 11.554688 -20.460938 11.484375 -20.421875 C 11.398438 -20.378906 11.285156 -20.285156 11.140625 -20.140625 C 11.054688 -19.984375 10.976562 -19.804688 10.90625 -19.609375 C 10.90625 -19.460938 10.847656 -19.039062 10.734375 -18.34375 L 22.671875 -18.34375 C 22.972656 -18.382812 23.203125 -18.484375 23.359375 -18.640625 C 23.472656 -18.753906 23.53125 -18.925781 23.53125 -19.15625 C 23.613281 -19.425781 23.671875 -19.867188 23.703125 -20.484375 Z M 12.453125 -20.484375 "/></g></g></g><g fill="#ffffff" fill-opacity="1"><g transform="translate(151.852146, 48.799859)"><g><path d="M 10.953125 -40.4375 L 16.265625 -40.4375 C 17.191406 -40.4375 17.882812 -40.378906 18.34375 -40.265625 C 19.300781 -40.148438 19.957031 -39.878906 20.3125 -39.453125 C 20.65625 -38.992188 20.828125 -38.265625 20.828125 -37.265625 C 20.828125 -36.878906 20.796875 -36.28125 20.734375 -35.46875 C 20.679688 -34.664062 20.554688 -33.628906 20.359375 -32.359375 L 19.84375 -28.609375 L 32.53125 -28.609375 C 32.1875 -26.148438 31.898438 -24.5 31.671875 -23.65625 C 31.398438 -22.570312 30.898438 -21.78125 30.171875 -21.28125 C 29.671875 -20.976562 29 -20.769531 28.15625 -20.65625 C 27.769531 -20.613281 27.160156 -20.582031 26.328125 -20.5625 C 25.503906 -20.539062 24.457031 -20.53125 23.1875 -20.53125 L 18.6875 -20.53125 L 18.40625 -18.40625 L 17.25 -10.265625 L 16.953125 -8.1875 L 29.65625 -8.1875 C 29.5 -7 29.351562 -6 29.21875 -5.1875 C 29.082031 -4.382812 28.957031 -3.769531 28.84375 -3.34375 C 28.613281 -2.382812 28.25 -1.65625 27.75 -1.15625 C 27.320312 -0.726562 26.570312 -0.421875 25.5 -0.234375 C 24.6875 -0.117188 23.070312 -0.0625 20.65625 -0.0625 L 15.453125 -0.0625 C 12.953125 -0.0625 11.300781 -0.117188 10.5 -0.234375 C 9.457031 -0.421875 8.765625 -0.765625 8.421875 -1.265625 C 8.191406 -1.691406 8.078125 -2.25 8.078125 -2.9375 L 8.078125 -3.859375 C 8.191406 -4.628906 8.421875 -6.070312 8.765625 -8.1875 L 9.0625 -10.265625 L 10.203125 -18.40625 L 10.5 -20.53125 L 2.3125 -20.53125 C 2.5 -21.644531 2.648438 -22.578125 2.765625 -23.328125 C 2.878906 -24.078125 2.957031 -24.628906 3 -24.984375 C 3.34375 -26.367188 3.84375 -27.3125 4.5 -27.8125 C 5.070312 -28.15625 5.84375 -28.382812 6.8125 -28.5 C 7.195312 -28.570312 7.6875 -28.609375 8.28125 -28.609375 C 8.875 -28.609375 9.59375 -28.609375 10.4375 -28.609375 L 11.65625 -28.609375 L 12.8125 -36.921875 C 12.84375 -37.222656 12.859375 -37.460938 12.859375 -37.640625 C 12.859375 -37.816406 12.859375 -37.941406 12.859375 -38.015625 C 12.859375 -38.359375 12.820312 -38.585938 12.75 -38.703125 C 12.707031 -38.816406 12.640625 -38.941406 12.546875 -39.078125 C 12.453125 -39.210938 12.304688 -39.335938 12.109375 -39.453125 C 12.035156 -39.566406 11.898438 -39.703125 11.703125 -39.859375 C 11.515625 -40.015625 11.265625 -40.207031 10.953125 -40.4375 Z M 10.953125 -40.4375 "/></g></g></g><g fill="#ffffff" fill-opacity="1"><g transform="translate(184.098768, 48.799859)"><g><path d="M 1.609375 -28.671875 L 6.578125 -28.671875 C 7.992188 -28.671875 8.992188 -28.613281 9.578125 -28.5 C 10.347656 -28.382812 10.867188 -28.15625 11.140625 -27.8125 C 11.441406 -27.5 11.59375 -26.898438 11.59375 -26.015625 L 11.59375 -25.328125 C 11.59375 -25.097656 11.546875 -24.578125 11.453125 -23.765625 C 11.359375 -22.960938 11.210938 -21.882812 11.015625 -20.53125 L 9.28125 -8.140625 L 19.78125 -8.140625 C 20.550781 -8.140625 21.050781 -8.175781 21.28125 -8.25 C 21.476562 -8.289062 21.632812 -8.367188 21.75 -8.484375 C 21.90625 -8.710938 22 -8.941406 22.03125 -9.171875 C 22.070312 -9.285156 22.109375 -9.425781 22.140625 -9.59375 C 22.179688 -9.769531 22.222656 -9.972656 22.265625 -10.203125 L 23.703125 -20.53125 L 24.859375 -28.671875 C 25.898438 -28.671875 26.753906 -28.671875 27.421875 -28.671875 C 28.097656 -28.671875 28.609375 -28.648438 28.953125 -28.609375 C 30.148438 -28.578125 31 -28.367188 31.5 -27.984375 C 32.070312 -27.628906 32.359375 -26.992188 32.359375 -26.078125 C 32.398438 -25.992188 32.421875 -25.800781 32.421875 -25.5 C 32.421875 -24.726562 32.25 -23.070312 31.90625 -20.53125 L 30.171875 -8.140625 L 29.015625 0 L 28.5 3.6875 C 28.382812 4.726562 28.269531 5.59375 28.15625 6.28125 C 28.039062 6.976562 27.941406 7.519531 27.859375 7.90625 C 27.628906 8.976562 27.265625 9.84375 26.765625 10.5 C 26.460938 10.925781 25.882812 11.253906 25.03125 11.484375 C 24.226562 11.710938 22.269531 11.828125 19.15625 11.828125 L -1.734375 11.828125 C -1.460938 10.597656 -1.238281 9.597656 -1.0625 8.828125 C -0.894531 8.054688 -0.753906 7.476562 -0.640625 7.09375 C -0.171875 5.75 0.40625 4.863281 1.09375 4.4375 C 1.707031 4.050781 2.476562 3.84375 3.40625 3.8125 C 3.75 3.726562 4.238281 3.6875 4.875 3.6875 C 5.507812 3.6875 6.25 3.6875 7.09375 3.6875 L 17.078125 3.6875 C 17.617188 3.6875 18.039062 3.675781 18.34375 3.65625 C 18.65625 3.644531 18.882812 3.640625 19.03125 3.640625 C 19.570312 3.523438 19.898438 3.367188 20.015625 3.171875 C 20.285156 2.898438 20.441406 2.554688 20.484375 2.140625 C 20.597656 1.785156 20.710938 1.070312 20.828125 0 L 7.5625 0 C 5.363281 0 3.863281 -0.0546875 3.0625 -0.171875 C 1.945312 -0.398438 1.210938 -0.820312 0.859375 -1.4375 C 0.628906 -1.863281 0.515625 -2.441406 0.515625 -3.171875 C 0.515625 -3.671875 0.570312 -4.328125 0.6875 -5.140625 C 0.726562 -5.441406 0.773438 -5.84375 0.828125 -6.34375 C 0.890625 -6.84375 0.957031 -7.441406 1.03125 -8.140625 L 2.765625 -20.53125 L 3.34375 -24.453125 C 3.425781 -24.765625 3.46875 -25.015625 3.46875 -25.203125 C 3.46875 -25.398438 3.46875 -25.554688 3.46875 -25.671875 C 3.46875 -26.054688 3.425781 -26.328125 3.34375 -26.484375 C 3.300781 -26.628906 3.234375 -26.789062 3.140625 -26.96875 C 3.046875 -27.144531 2.90625 -27.304688 2.71875 -27.453125 C 2.632812 -27.566406 2.503906 -27.726562 2.328125 -27.9375 C 2.160156 -28.15625 1.921875 -28.398438 1.609375 -28.671875 Z M 1.609375 -28.671875 "/></g></g></g></g></g><g transform="matrix(1, 0, 0, 1, 149, 203)"><g clip-path="url(#f4dcb82d80)"><g clip-path="url(#d2d0bec317)"><g fill="#0d0d0d" fill-opacity="1"><g transform="translate(2.988817, 8.064974)"><g><path d="M -0.875 -0.238281 L 0.605469 -7.253906 L 7.628906 -7.253906 L 6.929688 -3.863281 L 2.574219 -3.863281 L 2.574219 -5.007812 L 3.695312 -4.769531 L 3.300781 -2.929688 L 2.183594 -3.167969 L 2.183594 -4.3125 L 6.148438 -4.3125 L 5.421875 -0.921875 L 1.945312 -0.921875 L 1.945312 -2.070312 L 3.066406 -1.832031 L 2.4375 1.144531 L -1.167969 1.144531 Z M 1.363281 0.238281 L 0.246094 0 L 0.246094 -1.144531 L 1.511719 -1.144531 L 1.511719 0 L 0.390625 -0.238281 L 1.015625 -3.214844 L 4.496094 -3.214844 L 4.496094 -2.070312 L 3.375 -2.308594 L 3.609375 -3.40625 L 4.730469 -3.167969 L 4.730469 -2.023438 L 0.765625 -2.023438 L 1.648438 -6.15625 L 5.996094 -6.15625 L 5.996094 -5.007812 L 4.875 -5.242188 L 5.101562 -6.339844 L 6.222656 -6.109375 L 6.222656 -4.964844 L 1.535156 -4.964844 L 1.535156 -6.109375 L 2.65625 -5.871094 Z M 1.363281 0.238281 "/></g></g></g></g><g clip-path="url(#69fc4d0186)"><g fill="#0d0d0d" fill-opacity="1"><g transform="translate(11.393212, 8.064974)"><g><path d="M -0.875 -0.238281 L 0.605469 -7.253906 L 4.214844 -7.253906 L 2.4375 1.144531 L -1.167969 1.144531 Z M 1.363281 0.238281 L 0.246094 0 L 0.246094 -1.144531 L 1.511719 -1.144531 L 1.511719 0 L 0.390625 -0.238281 L 1.679688 -6.347656 L 2.800781 -6.109375 L 2.800781 -4.964844 L 1.535156 -4.964844 L 1.535156 -6.109375 L 2.65625 -5.871094 Z M 1.363281 0.238281 "/></g></g></g></g><g clip-path="url(#d1732f7ef8)"><g fill="#0d0d0d" fill-opacity="1"><g transform="translate(16.961225, 8.064974)"><g><path d="M 0.398438 -0.238281 L 1.460938 -5.246094 L 2.582031 -5.007812 L 2.582031 -3.863281 L -0.636719 -3.863281 L 0.0625 -7.253906 L 7.289062 -7.253906 L 6.589844 -3.863281 L 3.847656 -3.863281 L 3.847656 -5.007812 L 4.96875 -4.769531 L 3.710938 1.144531 L 0.105469 1.144531 Z M 2.640625 0.238281 L 1.519531 0 L 1.519531 -1.144531 L 2.785156 -1.144531 L 2.785156 0 L 1.664062 -0.238281 L 2.921875 -6.15625 L 5.65625 -6.15625 L 5.65625 -5.007812 L 4.535156 -5.242188 L 4.761719 -6.339844 L 5.882812 -6.109375 L 5.882812 -4.964844 L 0.996094 -4.964844 L 0.996094 -6.109375 L 2.117188 -5.878906 L 1.890625 -4.777344 L 0.769531 -5.007812 L 0.769531 -6.15625 L 3.996094 -6.15625 Z M 2.640625 0.238281 "/></g></g></g></g><g clip-path="url(#072cee31e4)"><g fill="#0d0d0d" fill-opacity="1"><g transform="translate(25.060166, 8.064974)"><g><path d="M -0.875 -0.238281 L 0.351562 -6.015625 L 1.859375 -7.253906 L 6.472656 -7.253906 L 7.746094 -5.679688 L 6.296875 1.144531 L 2.6875 1.144531 L 4.003906 -5.046875 L 5.121094 -4.808594 L 4.222656 -4.101562 L 4.0625 -4.304688 L 4.964844 -5.007812 L 4.964844 -3.863281 L 2.773438 -3.863281 L 2.773438 -5.007812 L 3.503906 -4.125 L 3.257812 -3.921875 L 2.53125 -4.808594 L 3.652344 -4.570312 L 2.4375 1.144531 L -1.167969 1.144531 Z M 1.363281 0.238281 L 0.246094 0 L 0.246094 -1.144531 L 1.511719 -1.144531 L 1.511719 0 L 0.390625 -0.238281 L 1.492188 -5.4375 L 2.363281 -6.15625 L 5.523438 -6.15625 L 6.355469 -5.09375 L 5.222656 0.238281 L 4.101562 0 L 4.101562 -1.144531 L 5.367188 -1.144531 L 5.367188 0 L 4.246094 -0.238281 L 5.390625 -5.621094 L 6.511719 -5.382812 L 5.621094 -4.664062 L 5.035156 -5.390625 L 5.925781 -6.109375 L 5.925781 -4.964844 L 2.269531 -4.964844 L 2.269531 -6.109375 L 2.996094 -5.222656 L 2.113281 -4.5 L 1.386719 -5.382812 L 2.507812 -5.148438 Z M 1.363281 0.238281 "/></g></g></g></g><g clip-path="url(#dad22cec24)"><g fill="#0d0d0d" fill-opacity="1"><g transform="translate(34.476934, 8.064974)"><g><path d="M -0.875 -0.238281 L 0.605469 -7.253906 L 7.628906 -7.253906 L 6.929688 -3.863281 L 2.574219 -3.863281 L 2.574219 -5.007812 L 3.695312 -4.765625 L 3.386719 -3.359375 L 2.269531 -3.605469 L 2.269531 -4.75 L 6.222656 -4.75 L 5.523438 -1.359375 L 2.042969 -1.359375 L 2.042969 -2.503906 L 3.160156 -2.261719 L 2.855469 -0.855469 L 1.738281 -1.101562 L 1.738281 -2.246094 L 6.5625 -2.246094 L 5.863281 1.144531 L -1.167969 1.144531 Z M 1.363281 0.238281 L 0.246094 0 L 0.246094 -1.144531 L 4.929688 -1.144531 L 4.929688 0 L 3.808594 -0.230469 L 4.035156 -1.332031 L 5.15625 -1.101562 L 5.15625 0.046875 L 0.316406 0.046875 L 1.117188 -3.648438 L 4.589844 -3.648438 L 4.589844 -2.503906 L 3.46875 -2.734375 L 3.695312 -3.835938 L 4.816406 -3.605469 L 4.816406 -2.457031 L 0.847656 -2.457031 L 1.652344 -6.15625 L 5.996094 -6.15625 L 5.996094 -5.007812 L 4.875 -5.242188 L 5.101562 -6.339844 L 6.222656 -6.109375 L 6.222656 -4.964844 L 1.535156 -4.964844 L 1.535156 -6.109375 L 2.65625 -5.871094 Z M 1.363281 0.238281 "/></g></g></g></g><g clip-path="url(#0d540d6a1b)"><g fill="#0d0d0d" fill-opacity="1"><g transform="translate(43.15188, 8.064974)"><g><path d="M -0.046875 0.707031 L -0.953125 -0.445312 L -0.40625 -3.03125 L 3.199219 -3.03125 L 2.789062 -1.066406 L 1.667969 -1.300781 L 2.589844 -1.980469 L 2.738281 -1.78125 L 1.816406 -1.101562 L 1.816406 -2.246094 L 4.003906 -2.246094 L 4.003906 -1.101562 L 3.277344 -1.984375 L 3.523438 -2.183594 L 4.25 -1.300781 L 3.132812 -1.542969 L 3.359375 -2.582031 L 4.476562 -2.339844 L 3.59375 -1.609375 L 3.429688 -1.808594 L 4.3125 -2.539062 L 4.3125 -1.394531 L 0.828125 -1.394531 L -0.410156 -2.980469 L 0.238281 -6.011719 L 1.734375 -7.253906 L 6.351562 -7.253906 L 7.625 -5.675781 L 7.058594 -3.078125 L 3.441406 -3.078125 L 3.882812 -5.058594 L 5 -4.808594 L 4.097656 -4.101562 L 3.941406 -4.304688 L 4.84375 -5.007812 L 4.84375 -3.863281 L 2.652344 -3.863281 L 2.652344 -5.007812 L 3.394531 -4.136719 L 3.160156 -3.9375 L 2.417969 -4.808594 L 3.535156 -4.566406 L 3.328125 -3.597656 L 2.207031 -3.839844 L 3.128906 -4.519531 L 3.277344 -4.320312 L 2.355469 -3.640625 L 2.355469 -4.785156 L 5.867188 -4.785156 L 7.074219 -3.113281 L 6.429688 -0.105469 L 4.925781 1.144531 L 0.296875 1.144531 Z M 1.757812 -0.707031 L 0.855469 0 L 0.855469 -1.144531 L 4.511719 -1.144531 L 4.511719 0 L 3.78125 -0.878906 L 4.660156 -1.613281 L 5.394531 -0.734375 L 4.273438 -0.972656 L 4.726562 -3.09375 L 5.847656 -2.855469 L 4.917969 -2.183594 L 4.351562 -2.96875 L 5.28125 -3.640625 L 5.28125 -2.492188 L 1.777344 -2.492188 L 0.980469 -3.574219 L 1.378906 -5.429688 L 2.230469 -6.15625 L 5.402344 -6.15625 L 6.238281 -5.085938 L 5.988281 -3.972656 L 4.871094 -4.222656 L 4.871094 -5.371094 L 6.136719 -5.371094 L 6.136719 -4.222656 L 5.015625 -4.46875 L 5.269531 -5.628906 L 6.386719 -5.382812 L 5.496094 -4.664062 L 4.914062 -5.390625 L 5.804688 -6.109375 L 5.804688 -4.964844 L 2.148438 -4.964844 L 2.148438 -6.109375 L 2.878906 -5.226562 L 2.003906 -4.503906 L 1.273438 -5.382812 L 2.394531 -5.144531 L 1.941406 -3.023438 L 0.820312 -3.265625 L 1.722656 -3.96875 L 2.289062 -3.246094 L 1.386719 -2.539062 L 1.386719 -3.683594 L 4.851562 -3.683594 L 5.714844 -2.640625 L 5.285156 -0.667969 L 4.414062 0.046875 L 1.238281 0.046875 L 0.441406 -1.03125 L 0.667969 -2.121094 L 1.789062 -1.886719 L 1.789062 -0.738281 L 0.523438 -0.738281 L 0.523438 -1.886719 L 1.644531 -1.648438 L 1.398438 -0.496094 L 0.277344 -0.734375 L 1.179688 -1.441406 Z M 1.757812 -0.707031 "/></g></g></g></g><g clip-path="url(#3e009d7040)"><g fill="#0d0d0d" fill-opacity="1"><g transform="translate(52.324285, 8.064974)"><g><path d="M -0.046875 0.707031 L -0.953125 -0.445312 L -0.40625 -3.03125 L 3.199219 -3.03125 L 2.789062 -1.066406 L 1.667969 -1.300781 L 2.589844 -1.980469 L 2.738281 -1.78125 L 1.816406 -1.101562 L 1.816406 -2.246094 L 4.003906 -2.246094 L 4.003906 -1.101562 L 3.277344 -1.984375 L 3.523438 -2.183594 L 4.25 -1.300781 L 3.132812 -1.542969 L 3.359375 -2.582031 L 4.476562 -2.339844 L 3.59375 -1.609375 L 3.429688 -1.808594 L 4.3125 -2.539062 L 4.3125 -1.394531 L 0.828125 -1.394531 L -0.410156 -2.980469 L 0.238281 -6.011719 L 1.734375 -7.253906 L 6.351562 -7.253906 L 7.625 -5.675781 L 7.058594 -3.078125 L 3.441406 -3.078125 L 3.882812 -5.058594 L 5 -4.808594 L 4.097656 -4.101562 L 3.941406 -4.304688 L 4.84375 -5.007812 L 4.84375 -3.863281 L 2.652344 -3.863281 L 2.652344 -5.007812 L 3.394531 -4.136719 L 3.160156 -3.9375 L 2.417969 -4.808594 L 3.535156 -4.566406 L 3.328125 -3.597656 L 2.207031 -3.839844 L 3.128906 -4.519531 L 3.277344 -4.320312 L 2.355469 -3.640625 L 2.355469 -4.785156 L 5.867188 -4.785156 L 7.074219 -3.113281 L 6.429688 -0.105469 L 4.925781 1.144531 L 0.296875 1.144531 Z M 1.757812 -0.707031 L 0.855469 0 L 0.855469 -1.144531 L 4.511719 -1.144531 L 4.511719 0 L 3.78125 -0.878906 L 4.660156 -1.613281 L 5.394531 -0.734375 L 4.273438 -0.972656 L 4.726562 -3.09375 L 5.847656 -2.855469 L 4.917969 -2.183594 L 4.351562 -2.96875 L 5.28125 -3.640625 L 5.28125 -2.492188 L 1.777344 -2.492188 L 0.980469 -3.574219 L 1.378906 -5.429688 L 2.230469 -6.15625 L 5.402344 -6.15625 L 6.238281 -5.085938 L 5.988281 -3.972656 L 4.871094 -4.222656 L 4.871094 -5.371094 L 6.136719 -5.371094 L 6.136719 -4.222656 L 5.015625 -4.46875 L 5.269531 -5.628906 L 6.386719 -5.382812 L 5.496094 -4.664062 L 4.914062 -5.390625 L 5.804688 -6.109375 L 5.804688 -4.964844 L 2.148438 -4.964844 L 2.148438 -6.109375 L 2.878906 -5.226562 L 2.003906 -4.503906 L 1.273438 -5.382812 L 2.394531 -5.144531 L 1.941406 -3.023438 L 0.820312 -3.265625 L 1.722656 -3.96875 L 2.289062 -3.246094 L 1.386719 -2.539062 L 1.386719 -3.683594 L 4.851562 -3.683594 L 5.714844 -2.640625 L 5.285156 -0.667969 L 4.414062 0.046875 L 1.238281 0.046875 L 0.441406 -1.03125 L 0.667969 -2.121094 L 1.789062 -1.886719 L 1.789062 -0.738281 L 0.523438 -0.738281 L 0.523438 -1.886719 L 1.644531 -1.648438 L 1.398438 -0.496094 L 0.277344 -0.734375 L 1.179688 -1.441406 Z M 1.757812 -0.707031 "/></g></g></g></g><g fill="#ff9757" fill-opacity="1"><g transform="translate(2.988817, 8.064974)"><g><path d="M 0.25 0 L 1.53125 -6.109375 L 6.234375 -6.109375 L 6 -5.015625 L 2.578125 -5.015625 L 2.1875 -3.171875 L 4.734375 -3.171875 L 4.5 -2.0625 L 1.953125 -2.0625 L 1.515625 0 Z M 0.25 0 "/></g></g></g><g fill="#ff9757" fill-opacity="1"><g transform="translate(11.393212, 8.064974)"><g><path d="M 0.25 0 L 1.53125 -6.109375 L 2.796875 -6.109375 L 1.515625 0 Z M 0.25 0 "/></g></g></g><g fill="#ff9757" fill-opacity="1"><g transform="translate(16.961225, 8.064974)"><g><path d="M 1.515625 0 L 2.578125 -5.015625 L 0.765625 -5.015625 L 1 -6.109375 L 5.890625 -6.109375 L 5.65625 -5.015625 L 3.859375 -5.015625 L 2.78125 0 Z M 1.515625 0 "/></g></g></g><g fill="#ff9757" fill-opacity="1"><g transform="translate(25.060166, 8.064974)"><g><path d="M 0.25 0 L 1.390625 -5.390625 L 2.265625 -6.109375 L 5.9375 -6.109375 L 6.515625 -5.390625 L 5.375 0 L 4.109375 0 L 5.125 -4.8125 L 4.96875 -5.015625 L 2.78125 -5.015625 L 2.53125 -4.8125 L 1.515625 0 Z M 0.25 0 "/></g></g></g><g fill="#ff9757" fill-opacity="1"><g transform="translate(34.476934, 8.064974)"><g><path d="M 0.25 0 L 1.53125 -6.109375 L 6.234375 -6.109375 L 6 -5.015625 L 2.578125 -5.015625 L 2.265625 -3.609375 L 4.828125 -3.609375 L 4.59375 -2.5 L 2.046875 -2.5 L 1.734375 -1.09375 L 5.15625 -1.09375 L 4.9375 0 Z M 0.25 0 "/></g></g></g><g fill="#ff9757" fill-opacity="1"><g transform="translate(43.15188, 8.064974)"><g><path d="M 0.859375 0 L 0.28125 -0.734375 L 0.53125 -1.890625 L 1.796875 -1.890625 L 1.671875 -1.296875 L 1.8125 -1.09375 L 4.015625 -1.09375 L 4.25 -1.296875 L 4.484375 -2.34375 L 4.3125 -2.546875 L 1.390625 -2.546875 L 0.828125 -3.265625 L 1.28125 -5.390625 L 2.15625 -6.109375 L 5.8125 -6.109375 L 6.390625 -5.390625 L 6.140625 -4.234375 L 4.875 -4.234375 L 5 -4.8125 L 4.84375 -5.015625 L 2.65625 -5.015625 L 2.421875 -4.8125 L 2.203125 -3.84375 L 2.359375 -3.640625 L 5.28125 -3.640625 L 5.859375 -2.859375 L 5.390625 -0.734375 L 4.515625 0 Z M 0.859375 0 "/></g></g></g><g fill="#ff9757" fill-opacity="1"><g transform="translate(52.324285, 8.064974)"><g><path d="M 0.859375 0 L 0.28125 -0.734375 L 0.53125 -1.890625 L 1.796875 -1.890625 L 1.671875 -1.296875 L 1.8125 -1.09375 L 4.015625 -1.09375 L 4.25 -1.296875 L 4.484375 -2.34375 L 4.3125 -2.546875 L 1.390625 -2.546875 L 0.828125 -3.265625 L 1.28125 -5.390625 L 2.15625 -6.109375 L 5.8125 -6.109375 L 6.390625 -5.390625 L 6.140625 -4.234375 L 4.875 -4.234375 L 5 -4.8125 L 4.84375 -5.015625 L 2.65625 -5.015625 L 2.421875 -4.8125 L 2.203125 -3.84375 L 2.359375 -3.640625 L 5.28125 -3.640625 L 5.859375 -2.859375 L 5.390625 -0.734375 L 4.515625 0 Z M 0.859375 0 "/></g></g></g></g></g><g clip-path="url(#876748747c)"><path fill="#ff914d" d="M 337.410156 220.304688 L 314.898438 212.777344 C 314.859375 212.761719 314.832031 212.734375 314.824219 212.695312 C 314.8125 212.652344 314.820312 212.617188 314.847656 212.585938 L 320.039062 206.515625 C 320.082031 206.464844 320.085938 206.417969 320.042969 206.367188 C 320.007812 206.316406 319.960938 206.300781 319.902344 206.328125 L 303.472656 213.699219 C 303.421875 213.722656 303.378906 213.714844 303.339844 213.675781 C 303.300781 213.636719 303.292969 213.59375 303.316406 213.542969 L 307.429688 204.015625 C 307.457031 203.960938 307.445312 203.917969 307.398438 203.878906 C 307.355469 203.839844 307.308594 203.835938 307.257812 203.867188 L 274.148438 224.371094 C 274.085938 224.410156 274.070312 224.460938 274.105469 224.527344 C 274.140625 224.59375 274.191406 224.613281 274.257812 224.582031 L 296.238281 215.316406 C 296.296875 215.292969 296.34375 215.304688 296.378906 215.355469 C 296.417969 215.40625 296.414062 215.457031 296.375 215.503906 L 291.167969 221.648438 C 291.132812 221.695312 291.128906 221.742188 291.15625 221.792969 C 291.1875 221.839844 291.230469 221.859375 291.289062 221.84375 L 314.066406 216.050781 C 314.125 216.035156 314.171875 216.054688 314.199219 216.105469 C 314.230469 216.160156 314.222656 216.207031 314.179688 216.25 L 309.972656 220.332031 C 309.933594 220.371094 309.925781 220.414062 309.945312 220.464844 C 309.96875 220.511719 310.003906 220.539062 310.058594 220.539062 L 337.371094 220.539062 C 337.4375 220.539062 337.476562 220.503906 337.488281 220.4375 C 337.5 220.371094 337.472656 220.328125 337.410156 220.304688 Z M 309.722656 207.503906 L 319.539062 201.390625 C 319.554688 201.382812 319.570312 201.367188 319.578125 201.351562 L 324.675781 193.351562 C 324.710938 193.296875 324.703125 193.246094 324.660156 193.203125 C 324.613281 193.15625 324.5625 193.152344 324.511719 193.183594 L 314.527344 199.367188 C 314.511719 199.378906 314.5 199.390625 314.488281 199.40625 L 309.558594 207.339844 C 309.523438 207.390625 309.527344 207.441406 309.574219 207.488281 C 309.621094 207.53125 309.667969 207.535156 309.722656 207.503906 Z M 309.722656 207.503906 " fill-opacity="1" fill-rule="evenodd"/></g><g clip-path="url(#abcfeede63)"><g transform="matrix(1, 0, 0, 1, 39, 193)"><g clip-path="url(#7cec26f143)"><g clip-path="url(#b85736aa5e)"><path fill="#ff9757" d="M 0.402344 27.304688 L 22.914062 19.777344 C 22.953125 19.761719 22.980469 19.734375 22.988281 19.695312 C 23 19.652344 22.992188 19.617188 22.964844 19.585938 L 17.773438 13.515625 C 17.730469 13.464844 17.726562 13.417969 17.769531 13.367188 C 17.804688 13.316406 17.851562 13.300781 17.910156 13.328125 L 34.339844 20.699219 C 34.390625 20.722656 34.433594 20.714844 34.472656 20.675781 C 34.511719 20.636719 34.519531 20.59375 34.496094 20.542969 L 30.382812 11.015625 C 30.355469 10.960938 30.367188 10.917969 30.414062 10.878906 C 30.457031 10.839844 30.503906 10.835938 30.554688 10.867188 L 63.664062 31.371094 C 63.726562 31.410156 63.742188 31.460938 63.707031 31.527344 C 63.671875 31.59375 63.621094 31.613281 63.554688 31.582031 L 41.574219 22.316406 C 41.515625 22.292969 41.46875 22.304688 41.433594 22.355469 C 41.394531 22.40625 41.398438 22.457031 41.4375 22.503906 L 46.644531 28.648438 C 46.679688 28.695312 46.683594 28.742188 46.65625 28.792969 C 46.625 28.839844 46.582031 28.859375 46.523438 28.84375 L 23.746094 23.050781 C 23.6875 23.035156 23.640625 23.054688 23.613281 23.105469 C 23.582031 23.160156 23.589844 23.207031 23.632812 23.25 L 27.839844 27.332031 C 27.878906 27.371094 27.886719 27.414062 27.867188 27.464844 C 27.84375 27.511719 27.808594 27.539062 27.753906 27.539062 L 0.441406 27.539062 C 0.375 27.539062 0.335938 27.503906 0.324219 27.4375 C 0.3125 27.371094 0.339844 27.328125 0.402344 27.304688 Z M 28.089844 14.503906 L 18.273438 8.390625 C 18.257812 8.382812 18.242188 8.367188 18.234375 8.351562 L 13.136719 0.351562 C 13.101562 0.296875 13.109375 0.246094 13.152344 0.203125 C 13.199219 0.15625 13.25 0.152344 13.300781 0.183594 L 23.285156 6.367188 C 23.300781 6.378906 23.3125 6.390625 23.324219 6.40625 L 28.253906 14.339844 C 28.289062 14.390625 28.285156 14.441406 28.238281 14.488281 C 28.191406 14.53125 28.144531 14.535156 28.089844 14.503906 Z M 28.089844 14.503906 " fill-opacity="1" fill-rule="evenodd"/></g></g></g></g></svg>